<svg xmlns="http://www.w3.org/2000/svg" xmlns:xlink="http://www.w3.org/1999/xlink" width="500" zoomAndPan="magnify" viewBox="0 0 375 374.999991" height="500" preserveAspectRatio="xMidYMid meet" version="1.0"><defs><clipPath id="f68cf56962"><path d="M 24 19.386719 L 356 19.386719 L 356 351.636719 L 24 351.636719 Z M 24 19.386719 " clip-rule="nonzero"/></clipPath></defs><path fill="#ebeef7" d="M 335.019531 343.382812 L 271.046875 326.1875 C 242.84375 318.617188 213.722656 316.324219 184.601562 317.242188 C 180.703125 317.472656 176.804688 317.472656 172.90625 317.242188 C 101.367188 314.261719 42.4375 256.710938 38.082031 184.941406 C 32.578125 99.183594 103.660156 28.558594 189.644531 34.519531 C 261.414062 39.566406 318.511719 99.410156 320.804688 171.183594 C 321.261719 186.773438 319.199219 201.90625 315.070312 216.125 L 346.253906 332.148438 C 347.859375 339.027344 341.898438 345.21875 335.019531 343.382812 Z M 335.019531 343.382812 " fill-opacity="1" fill-rule="nonzero"/><path fill="#c3d6e4" d="M 44.960938 131.285156 C 44.960938 131.285156 160.753906 27.183594 238.484375 84.507812 C 329.746094 151.691406 301.082031 214.519531 301.082031 214.519531 L 312.546875 245.472656 C 316.445312 255.792969 331.808594 251.433594 329.746094 240.660156 L 330.203125 162.46875 L 308.652344 95.285156 L 258.664062 46.214844 L 201.339844 26.953125 L 127.507812 33.832031 L 54.132812 89.09375 L 33.726562 129.679688 Z M 44.960938 131.285156 " fill-opacity="1" fill-rule="nonzero"/><g clip-path="url(#f68cf56962)"><path fill="#004463" d="M 335.707031 351.636719 C 333.875 351.636719 332.039062 351.410156 330.433594 350.949219 L 278.613281 336.960938 C 245.363281 328.019531 213.492188 324.121094 183.453125 325.269531 C 179.328125 325.496094 174.972656 325.496094 170.84375 325.269531 C 93.570312 322.058594 29.367188 259.230469 24.554688 182.1875 C 21.800781 137.933594 38.082031 94.824219 69.496094 63.640625 C 100.910156 32.6875 144.246094 16.636719 188.5 19.847656 C 265.542969 25.347656 327.910156 90.242188 330.203125 167.511719 C 330.203125 169.578125 330.203125 171.871094 330.203125 173.933594 C 329.746094 211.996094 335.476562 253.039062 346.941406 295.691406 L 354.96875 325.957031 C 356.804688 333.066406 354.96875 340.402344 349.695312 345.675781 C 346.027344 349.574219 340.980469 351.636719 335.707031 351.636719 Z M 336.167969 328.9375 Z M 193.316406 302.339844 C 222.207031 302.339844 252.933594 306.695312 284.34375 314.949219 L 332.269531 327.789062 L 325.160156 301.652344 C 313.238281 256.9375 307.273438 213.832031 307.734375 173.703125 C 307.734375 171.871094 307.734375 170.035156 307.734375 168.199219 C 305.667969 102.394531 252.703125 47.363281 187.125 42.546875 C 149.519531 39.796875 112.601562 53.554688 86.003906 79.921875 C 59.40625 106.289062 45.191406 143.207031 47.484375 180.8125 C 51.609375 246.160156 106.183594 299.585938 171.53125 302.339844 C 175.199219 302.570312 178.640625 302.570312 182.308594 302.339844 C 185.976562 302.339844 189.644531 302.339844 193.316406 302.339844 Z M 193.316406 302.339844 " fill-opacity="1" fill-rule="nonzero"/></g><path fill="#f5b445" d="M 141.722656 176.914062 C 141.722656 187.691406 133.011719 196.632812 122.003906 196.632812 C 111.226562 196.632812 102.285156 187.921875 102.285156 176.914062 C 102.285156 166.136719 110.996094 157.195312 122.003906 157.195312 C 133.011719 157.195312 141.722656 165.90625 141.722656 176.914062 Z M 141.722656 176.914062 " fill-opacity="1" fill-rule="nonzero"/><path fill="#ef4c4e" d="M 195.835938 176.914062 C 195.835938 187.691406 187.125 196.632812 176.117188 196.632812 C 165.339844 196.632812 156.398438 187.921875 156.398438 176.914062 C 156.398438 166.136719 165.109375 157.195312 176.117188 157.195312 C 187.125 157.195312 195.835938 165.90625 195.835938 176.914062 Z M 195.835938 176.914062 " fill-opacity="1" fill-rule="nonzero"/><path fill="#4c9ad4" d="M 250.179688 176.914062 C 250.179688 187.691406 241.46875 196.632812 230.460938 196.632812 C 219.683594 196.632812 210.742188 187.921875 210.742188 176.914062 C 210.742188 166.136719 219.453125 157.195312 230.460938 157.195312 C 241.238281 157.195312 250.179688 165.90625 250.179688 176.914062 Z M 250.179688 176.914062 " fill-opacity="1" fill-rule="nonzero"/></svg>