<?xml version="1.0" encoding="UTF-8"?>
<svg version="1.1" viewBox="0 0 1592 1600" width="1280" height="1280" xmlns="http://www.w3.org/2000/svg">
<path transform="translate(0)" d="m0 0h1592v1600h-1592v-1600z" fill="#FBFDFD"/>
<path transform="translate(1348,128)" d="m0 0c9.73 7.25 16.8 17.2 20 29 0.278 2.96 0.267 5.91 0.25 8.89 0.00402 1.33 0.00402 1.33 0.00812 2.7 0.00657 3-0.00117 5.99-0.00878 8.99 0.00178 2.17 0.00444 4.35 0.0079 6.52 0.00699 6 0.00144 12-0.00606 18-0.00534 5.85-0.00126 11.7 0.00256 17.5 0.00757 12.1 0.00564 24.2-0.00143 36.3-0.00712 12.3-0.00991 24.6-0.00736 36.8 1.58e-4 0.775 3.16e-4 1.55 4.78e-4 2.35 8.24e-4 3.95 0.00172 7.9 0.00263 11.9 0.00648 28.6 0.00312 57.2-0.00559 85.8-0.00861 28.4-0.0135 56.7-0.0133 85.1 7.92e-6 1.78 1.56e-5 3.56 2.32e-5 5.34 3.74e-5 7.15 1.04e-4 14.3 2.06e-4 21.5 2.78e-4 20-1.11e-4 40-9.89e-4 60-3.97e-5 0.911-7.93e-5 1.82-1.2e-4 2.76-0.00131 29-0.00548 58-0.0117 87.1-2.03e-4 0.942-4.06e-4 1.88-6.15e-4 2.85-0.00331 15.3-0.0068 30.6-0.0103 45.9-0.0139 60.6-0.0205 121-0.0198 182 2.04e-5 1.92 4.06e-5 3.83 6.06e-5 5.75 4.02e-5 3.83 8.1e-5 7.65 1.22e-4 11.5 9.14e-5 8.58 1.76e-4 17.2 2.47e-4 25.7 1.58e-5 1.9 3.22e-5 3.8 4.93e-5 5.7 4.45e-4 50.8-0.00402 102-0.0104 152-1.1e-4 0.887-2.2e-4 1.77-3.34e-4 2.69-0.00201 16.2-0.00201 16.2-0.00302 24.1-0.00249 19.5-0.00444 39-0.00481 58.5-1.75e-5 0.878-3.51e-5 1.76-5.31e-5 2.66-6.92e-5 3.54-1.34e-4 7.08-1.97e-4 10.6-5.86e-4 32.9-0.00436 65.7-0.0145 98.6-9.58e-4 3.15-0.0019 6.3-0.00283 9.46-2.31e-4 0.774-4.61e-4 1.55-6.99e-4 2.34-0.00356 12.2-0.0038 24.5-0.00267 36.7 0.00105 12-0.00151 24.1-0.00785 36.1-0.00325 6.44-0.00494 12.9-0.00224 19.3 0.00242 5.86 2.11e-4 11.7-0.00562 17.6-0.00129 2.1-9.4e-4 4.2 0.00132 6.31 0.00955 9.68-0.0558 19.3-0.57 29-0.0565 1.09-0.0565 1.09-0.114 2.19-0.811 13.4-5.54 22.4-15.3 31.6-9.68 8.26-18.7 11.5-31.5 11.2-12.6-1.3-24.3-9.89-32.5-19.2-7.8-10.6-9.32-23.9-9.12-36.7 0.0255-1.69 0.0465-3.39 0.0625-5.08 0.0174-1.11 0.0174-1.11 0.0352-2.25 0.0216-1.95 0.0216-1.95-1.1-3.86-0.102-2.85-0.14-5.68-0.133-8.53 8.83e-5 -0.886 1.77e-4 -1.77 2.68e-4 -2.68 0.0106-21.2 0.109-42.5 0.361-63.7 0.702-59.5 0.9-119 0.847-179-0.00809-9.17-0.0135-18.3-0.0172-27.5-2.73e-4 -0.673-5.45e-4 -1.35-8.27e-4 -2.04-0.00138-3.44-0.00271-6.87-0.00403-10.3-0.0027-7.02-0.0057-14-0.00881-21.1-3.12e-4 -0.705-6.24e-4 -1.41-9.45e-4 -2.14-0.00684-15.3-0.0167-30.6-0.0267-45.9-0.0234-35.7-0.0375-71.4-0.0485-107-0.00433-14.1-0.00895-28.2-0.0135-42.3-7.73e-4 -2.37-0.00154-4.74-0.00231-7.11-0.0118-36.2-0.0258-72.5-0.041-109-0.00103-2.45-0.00205-4.9-0.00307-7.34-0.0158-37.8-0.0338-75.6-0.0563-113-4.86e-4 -0.817-9.71e-4 -1.63-0.00147-2.48-0.00539-9.07-0.0108-18.1-0.0163-27.2-4.9e-4 -0.815-9.79e-4 -1.63-0.00148-2.47-0.00247-4.11-0.00495-8.23-0.00742-12.3-0.0224-37.2-0.0426-74.3-0.0534-112-2.28e-4 -0.781-4.55e-4 -1.56-6.9e-4 -2.37-0.00475-16.4-0.00888-32.7-0.0122-49.1-0.00155-7.66-0.00325-15.3-0.00504-23-1.73e-4 -0.754-3.47e-4 -1.51-5.25e-4 -2.29-0.00565-24.2-0.0213-48.5-0.0424-72.7-0.0212-24.4-0.0332-48.7-0.0325-73.1 4.63e-4 -15.1-0.00721-30.2-0.0285-45.3-0.0127-9.63-0.0146-19.3-0.00764-28.9 0.00366-5.49 0.00257-11-0.0118-16.5-0.013-4.99-0.0121-9.99-2.08e-4 -15 0.00184-1.79-0.00131-3.58-0.0102-5.37-0.0785-16.9 1.44-33.3 13.5-46.3 17.1-15.4 36.6-18 55.9-5.69z" fill="#A6A9A8"/>
<path transform="translate(1169 196)" d="m0 0c9.27 7.99 15 17 16.5 29.1 0.0897 2.82 0.137 5.62 0.129 8.44 0.00263 1.23 0.00263 1.23 0.00531 2.48 0.0044 2.71 0.00147 5.42-0.00189 8.14 6.77e-4 1.94 0.00165 3.88 0.0029 5.82 0.00148 4.1-6.67e-4 8.2-0.00534 12.3-0.00545 5.01-0.00265 10 0.00335 15 0.0335 35 0.0335 35-0.364 52-1.03 44.4-0.875 88.7-0.817 133 0.0157 12.3 0.0251 24.5 0.0342 36.8 0.0127 17.1 0.0267 34.3 0.0438 51.4 6.73e-4 0.674 0.00135 1.35 0.00204 2.04 0.00273 2.74 0.00547 5.47 0.00821 8.21 0.0344 34.4 0.057 68.7 0.0752 103 0.00342 6.47 0.00694 12.9 0.0105 19.4 0.00196 3.62 0.00392 7.24 0.00588 10.9 3.89e-4 0.719 7.79e-4 1.44 0.00118 2.18 0.00237 4.37 0.00472 8.74 0.00707 13.1 0.0176 32.8 0.0365 65.5 0.0571 98.3 0.00143 2.27 0.00284 4.53 0.00426 6.8 0.0219 35 0.0477 69.9 0.083 105 7.59e-4 0.754 0.00152 1.51 0.0023 2.28 0.0123 12.2 0.0247 24.3 0.0373 36.5 0.0361 35 0.0692 70.1 0.0854 105 5.02e-4 1.08 5.02e-4 1.08 0.00101 2.18 0.00698 15.1 0.0129 30.2 0.0174 45.3 0.00213 7.07 0.00448 14.1 0.00696 21.2 2.4e-4 0.696 4.8e-4 1.39 7.28e-4 2.11 0.00784 22.4 0.032 44.8 0.065 67.2 0.034 23.1 0.0507 46.3 0.0468 69.4-0.00163 13.3 0.0108 26.7 0.0431 40 0.0202 8.9 0.0224 17.8 0.00971 26.7-0.0067 5.08-0.0054 10.2 0.0179 15.2 0.021 4.62 0.0191 9.23-0.00128 13.9-0.00328 1.66 0.00183 3.32 0.0164 4.98 0.112 13.6-2.77 22.2-12.3 32.2-7.53 7.35-16 12.1-26.8 12.8-12.4-0.693-25.2-8.63-33.6-17.4-7.07-8.75-8.13-18.8-8.13-29.6-3.44e-4 -0.912-6.89e-4 -1.82-0.00104-2.76-0.03-96.4-0.03-96.4 0.341-144 0.659-84.5 0.89-169 0.919-396-0.00434-23.8-0.00398-47.6 4.55e-4 -71.4 0.0233-117 0.0233-117-0.781-425-0.00574-1.13-0.0115-2.26-0.0174-3.42-0.0631-12.4-0.129-24.8-0.198-37.1-0.0386-6.93-0.0697-13.9-0.0977-20.8-0.0209-4.88-0.0549-9.77-0.0989-14.7-0.0264-3.12-0.0445-6.24-0.0609-9.36-0.00936-1.43-0.0222-2.86-0.0392-4.29-0.262-22.5-0.262-22.5 5.04-30.4 0.806-1.21 0.806-1.21 1.63-2.45 0.494-0.696 0.987-1.39 1.5-2.11 0.598-0.887 1.2-1.77 1.81-2.69 15.6-16.5 35.7-21.5 54.7-7.46z" fill="#A6A9A8"/>
<path transform="translate(983,262)" d="m0 0c2.97 2.08 5.49 4.39 8 7 0.544 0.535 1.09 1.07 1.65 1.62 5.93 6.27 9.57 13.7 9.35 22.4 0.33 0.66 0.66 1.32 1 2 0.0972 2.26 0.127 4.52 0.128 6.78 0.00165 0.71 0.0033 1.42 5e-3 2.15 0.00436 2.41 0.00151 4.82-0.00123 7.23 0.00165 1.74 0.00373 3.48 0.00622 5.22 0.0056 4.82 0.00489 9.65 0.00322 14.5-7.28e-4 5.23 0.00428 10.5 0.00858 15.7 0.0076 10.4 0.00977 20.8 0.0103 31.2 9.12e-4 12.4 0.00757 24.9 0.0143 37.3 0.0157 29.4 0.0218 58.7 0.0264 88.1 0.00238 14.9 0.00608 29.9 0.01 44.8 0.0127 47.9 0.0234 95.8 0.0268 144 1.62e-4 2.29 3.28e-4 4.58 4.94e-4 6.87 3.34e-4 4.59 6.64e-4 9.19 9.95e-4 13.8 3.87e-4 5.38 7.77e-4 10.8 0.00117 16.1 1.12e-4 1.54 2.24e-4 3.08 3.34e-4 4.62 0.00355 49.4 0.0186 98.9 0.0419 148 0.0167 35.5 0.0322 71 0.0367 107 9.35e-5 0.73 1.87e-4 1.46 2.83e-4 2.21 0.00202 16 0.00318 32.1 0.00353 48.1 1.36e-4 5.74 3.45e-4 11.5 5.93e-4 17.2 6.16e-5 1.43 1.2e-4 2.85 1.75e-4 4.28 9.2e-4 22.8 0.0109 45.5 0.0255 68.3 0.015 23.6 0.0192 47.1 0.0109 70.7-0.00447 13.6-5.56e-4 27.2 0.0152 40.8 0.00972 9.07 0.0086 18.1-0.00144 27.2-0.00541 5.17-0.00603 10.3 0.00651 15.5 0.0113 4.7 0.00885 9.4-0.00467 14.1-0.00244 1.69 1.68e-4 3.38 0.0084 5.08 0.0557 12.3-0.772 22.1-9.38 31.6-7.03 7.01-13.7 12.3-23.8 13.5-0.702 0.0811-1.4 0.162-2.13 0.246-6.38 0.564-10.6-0.542-16.1-3.75-0.926-0.512-1.85-1.02-2.8-1.55-9.81-5.78-16-12.4-19.2-23.4-4.36-21.7-2.14-45.7-2.11-67.8 0.00505-5.12 0.0042-10.2 0.00416-15.4 8.39e-4 -10.1 0.0071-20.3 0.0151-30.4 0.00933-12.1 0.0128-24.3 0.0162-36.4 0.0086-29.3 0.0277-58.7 0.0484-88 0.00685-9.71 0.0133-19.4 0.0193-29.1 4.31e-4 -0.686 8.61e-4 -1.37 0.00131-2.08 0.00174-2.78 0.00348-5.55 0.00522-8.33 0.0297-47.5 0.0619-95 0.102-142 0.00316-3.72 0.00631-7.45 0.00946-11.2 6.25e-4 -0.738 0.00125-1.48 0.00189-2.24 0.00633-7.48 0.0127-15 0.019-22.4 0.00126-1.5 0.00253-3 0.0038-4.5 0.0407-48.2 0.0668-96.4 0.0828-145 0.0115-34.7 0.0248-69.4 0.0525-104 5.69e-4 -0.713 0.00114-1.43 0.00172-2.16 0.0125-15.7 0.0262-31.3 0.0409-47 0.00591-6.3 0.0117-12.6 0.0174-18.9 6.31e-4 -0.689 0.00126-1.38 0.00191-2.09 0.0203-22.2 0.0284-44.4 0.0302-66.6 0.00198-23 0.0183-45.9 0.0512-68.9 0.0185-13.2 0.0259-26.5 0.0175-39.7-0.00455-8.84 0.00533-17.7 0.0271-26.5 0.012-5.04 0.0176-10.1 0.00567-15.1-0.0107-4.58-0.00307-9.17 0.0192-13.8 0.0048-1.65 0.00291-3.3-0.00649-4.94-0.0463-8.79 0.241-16.4 4.52-24.3 0.435-0.805 0.869-1.61 1.32-2.44 4.93-8.65 13.8-14.6 23.1-17.9 8.94-2.16 17.5-0.874 25.6 3.38z" fill="#A8AAAA"/>
<path transform="translate(801 332)" d="m0 0c8.14 5.24 14 11.6 17.4 20.7 2.43 12 1.89 24.2 1.87 36.4-2.31e-4 2.27-7.36e-5 4.54 4.33e-4 6.81-1.24e-4 6.33-0.00711 12.7-0.0154 19-0.00516 4.12-0.00786 8.24-0.0101 12.4-0.0302 54.8-0.186 110-0.337 164-0.0154 5.61-0.0307 11.2-0.046 16.8-0.0344 12.6-0.0691 25.2-0.104 37.8-0.00643 2.33-0.0129 4.65-0.0193 6.98-0.0708 25.7-0.143 51.3-0.223 77-0.0895 28.7-0.172 57.4-0.241 86.2-0.00273 1.13-0.00546 2.26-0.00827 3.42-0.169 70.5-0.0745 141 0.296 212 0.0166 3.16 0.033 6.32 0.0494 9.48 0.284 54.6 0.645 109 1.54 164 0.224 14.1 0.31 28-1.17 42-0.102 1.01-0.204 2.02-0.309 3.06-1.21 9.24-5.29 15.3-12.4 21.2-8.11 5.89-16.2 7.61-26.1 6.54-9.34-3.02-19.5-10.2-24-19-3.13-7.05-3.54-13.2-3.47-20.9-0.00432-1.27-0.00863-2.54-0.0131-3.84-0.0114-3.51 0.00204-7.02 0.0196-10.5 0.0147-3.82 0.00603-7.65 3.56e-4 -11.5-0.00675-6.7 0.00133-13.4 0.0191-20.1 0.0264-9.97 0.0298-19.9 0.0285-29.9-0.00161-16.8 0.0153-33.6 0.0425-50.4 0.0269-16.7 0.0451-33.3 0.0518-50 4.2e-4 -1.04 8.4e-4 -2.08 0.00127-3.15 0.00208-5.28 4e-3 -10.6 0.00584-15.8 0.0133-37.4 0.0444-74.9 0.0866-112 0.0408-36.2 0.0763-72.3 0.103-108 8.09e-4 -1.11 0.00162-2.22 0.00245-3.36 0.0185-25.4 0.0352-50.8 0.0504-76.3 0.0013-2.17 0.0026-4.34 0.0039-6.51 0.00129-2.16 0.00259-4.33 0.00388-6.49 6.39e-4 -1.07 0.00128-2.14 0.00194-3.24 0.0032-5.36 0.00636-10.7 0.00945-16.1 0.0145-25 0.0339-50 0.0628-75 0.0181-15.8 0.0328-31.5 0.0449-47.3 0.00711-9.04 0.0159-18.1 0.0299-27.1 0.0666-43.6-0.218-87.3-0.863-131-0.216-14.7-0.327-29.4-0.39-44.1-0.00512-1.05-0.0102-2.11-0.0155-3.19-0.00455-1.01-0.00911-2.02-0.0138-3.07-0.00411-0.893-0.00821-1.79-0.0124-2.71-0.00591-12.4 0.207-22.9 8.23-32.9 0.92-1.25 0.92-1.25 1.86-2.52 2.3-2.67 4.53-4.3 7.52-6.16 0.915-0.581 1.83-1.16 2.77-1.76 8.68-4.72 18.8-5.54 27.7-0.941z" fill="#A6A9A8"/>
<path transform="translate(622 400)" d="m0 0c7.19 5.14 12.5 12.5 14.1 21.2 0.545 4.96 0.404 9.92 0.312 14.9 0.0455 2.67 0.213 5.05 0.559 7.67 0.628 5.49 0.642 10.9 0.63 16.5 0.00145 1.13 0.00291 2.26 0.0044 3.43 0.00365 3.8 1.77e-4 7.59-0.00326 11.4 5.98e-4 2.75 0.0027 5.5 0.00473 8.25 0.00361 5.98 0.0035 12 9.53e-4 17.9-0.00378 8.89-0.00185 17.8 0.00121 26.7 0.00527 15.9 0.00481 31.8 0.00192 47.7-0.00252 13.9-0.00317 27.9-0.00198 41.8 7.64e-5 0.926 1.53e-4 1.85 2.31e-4 2.81 3.11e-4 3.76 6.3e-4 7.52 9.6e-4 11.3 0.00306 35.3 2.84e-4 70.6-0.0051 106-0.00473 31.3-0.00434 62.5 4.61e-4 93.8 0.00538 35.2 0.00746 70.4 0.00439 106-3.21e-4 3.77-6.33e-4 7.54-9.43e-4 11.3-7.91e-5 0.928-1.58e-4 1.86-2.4e-4 2.81-0.00113 13.9 1.74e-4 27.8 0.00272 41.7 0.00289 15.9 0.00208 31.7-0.00328 47.6-0.00264 8.07-0.00383 16.1-3.51e-4 24.2 0.0122 30.6-0.0593 61.1-0.489 91.7-0.0269 2-0.0501 4.01-0.0731 6.01-0.044 3.68-0.101 7.36-0.161 11-0.0111 1.08-0.0223 2.16-0.0338 3.27-0.198 10.2-2.18 16.8-9.38 24.3-7.01 5.49-15 8.64-24 8-8.22-2.67-17.9-8.1-22-16-3.15-7.14-3.52-13.4-3.46-21.2-0.00611-1.3-0.0122-2.6-0.0185-3.93-0.0164-3.6-0.00795-7.19 0.00461-10.8 0.00926-3.91-0.00469-7.83-0.0156-11.7-0.016-6.86-0.0171-13.7-0.0084-20.6 0.0129-10.2 0.00291-20.4-0.0115-30.6-0.0249-18.2-0.0268-36.4-0.0187-54.6 0.00707-15.9 0.00713-31.9 1.37e-4 -47.8-9.11e-4 -2.14-0.00182-4.28-0.00273-6.41-0.00138-3.22-0.00277-6.44-0.00419-9.66-0.013-29.9-0.0181-59.9-0.00647-89.8 4.38e-4 -1.13 8.76e-4 -2.26 0.00133-3.42 0.00361-9.17 0.00744-18.3 0.0113-27.5 0.0148-35.8 0.00606-71.5-0.022-107-0.0314-40.2-0.0464-80.4-0.0362-121 0.00104-4.28 0.00202-8.57 0.00298-12.8 2.49e-4 -1.05 4.98e-4 -2.11 7.54e-4 -3.2 0.00344-15.9-0.00587-31.9-0.0215-47.8-0.0178-18.1-0.0179-36.2 0.00535-54.3 0.0125-10.1 0.0112-20.3-0.00988-30.4-0.0127-6.77-0.00727-13.5 0.013-20.3 0.011-3.86 0.0142-7.72-0.00468-11.6-0.0201-4.16-0.00159-8.31 0.0207-12.5-0.012-1.2-0.024-2.39-0.0363-3.63 0.12-10.9 4.03-18.6 11.4-26.5 9.93-8.73 21.2-9.93 32.8-3.77z" fill="#A6A9A8"/>
<path transform="translate(439 467)" d="m0 0c6.6 3.51 11 8.92 15.1 15.1 0.278 2.45 0.278 2.45 0.318 5.43 0.0197 1.14 0.0393 2.27 0.0596 3.44 0.0114 1.26 0.0227 2.51 0.0344 3.8 0.0187 1.34 0.0382 2.69 0.0583 4.03 0.0525 3.71 0.0913 7.42 0.127 11.1 0.0239 2.38 0.0514 4.77 0.08 7.15 0.488 40.9 0.437 81.9 0.394 123-0.0114 11.1-0.0157 22.2-0.0195 33.3-0.00698 19.8-0.0177 39.6-0.0317 59.5-8.28e-4 1.17-0.00166 2.35-0.00251 3.56-0.00506 7.15-0.0102 14.3-0.0154 21.4-0.00785 10.8-0.0156 21.7-0.0231 32.5-8.28e-4 1.19-0.00166 2.38-0.00251 3.61-0.0137 19.8-0.0234 39.7-0.0304 59.5-0.00446 12.2-0.0125 24.3-0.0251 36.5-0.00843 8.3-0.0133 16.6-0.0154 24.9-0.00134 4.78-0.00433 9.56-0.0118 14.3-0.00678 4.38-0.00888 8.75-0.00736 13.1-2.7e-4 1.58-0.00222 3.15-0.00609 4.73-0.0184 7.86 0.104 15.6 0.891 23.5 0.429 4.95 0.375 9.92 0.373 14.9 0.00336 1.16 0.00672 2.32 0.0102 3.52 0.00943 3.81 0.0114 7.62 0.0125 11.4 0.0024 2 0.00481 4 0.00746 6 0.00811 6.29 0.0106 12.6 0.00987 18.9-5.97e-4 6.42 0.00989 12.8 0.0257 19.3 0.0132 5.57 0.0184 11.1 0.0178 16.7-2.51e-4 3.3 0.00332 6.6 0.0132 9.9 0.0352 13-0.121 26-1.07 38.9-0.0692 1.02-0.138 2.05-0.21 3.1-0.706 8.48-2.36 14.2-8.96 20-0.763 0.701-1.53 1.4-2.31 2.12-5.52 3.85-10.6 5.59-17.3 4.51-7.08-1.91-14.7-5.85-19.4-11.6-2.64-5.18-3.37-9.22-3.15-15 0.0309-1.69 0.0581-3.38 0.0825-5.08 0.0152-0.932 0.0305-1.86 0.0462-2.82 0.0451-5.84-0.106-11.7-0.23-17.5-0.0504-2.6-0.101-5.21-0.15-7.81-0.0784-4-0.158-8.01-0.244-12-0.0839-3.93-0.157-7.87-0.231-11.8-0.027-1.18-0.0541-2.35-0.0819-3.56-0.1-5.67-0.0108-11.2 0.456-16.9 0.752-10.3 0.63-20.6 0.605-30.8-0.00171-2.25-0.00298-4.5-0.00383-6.75-0.00357-6.15-0.0134-12.3-0.0242-18.4-0.00944-5.96-0.0141-11.9-0.0187-17.9-0.00902-11.4-0.0215-22.9-0.0364-34.3-0.0236-18.1-0.0379-36.3-0.0492-54.4-0.00437-6.99-0.00901-14-0.0136-21-5.09e-4 -0.776-0.00102-1.55-0.00154-2.35-0.0121-18.4-0.0265-36.9-0.042-55.3-6.75e-4 -0.807-0.00135-1.61-0.00205-2.44-0.0158-18.8-0.0337-37.7-0.0563-56.5-9.71e-4 -0.811-0.00194-1.62-0.00294-2.46-0.00785-6.54-0.0158-13.1-0.0237-19.6-0.0327-26.9-0.0553-53.9-0.0663-80.8-0.00156-3.8-0.00326-7.61-0.00504-11.4-5.23e-4 -1.12-5.23e-4 -1.12-0.00106-2.27-0.00594-12.1-0.0227-24.1-0.0438-36.2-0.0209-12.1-0.0312-24.2-0.0305-36.3 9.77e-5 -6.56-0.0051-13.1-0.0232-19.7-0.0164-6-0.0191-12-0.0108-18 5.76e-4 -2.17-0.00398-4.35-0.0141-6.52-0.0129-2.95-0.00751-5.89 0.00262-8.84-0.00817-0.851-0.0163-1.7-0.0247-2.58 0.054-6.57 1.77-11.4 6.45-16.2 7.78-7.49 18.6-12.1 28.9-7.5z" fill="#A8ABAB"/>
<path transform="translate(1348,128)" d="m0 0c9.72 7.24 16.8 17.3 20 29 0.276 3.01 0.262 6.01 0.241 9.04 0.00171 0.899 0.00342 1.8 0.00518 2.73 0.00329 3.01-0.0077 6.02-0.0186 9.02-5.64e-4 2.16-2.47e-4 4.32 8.85e-4 6.48 5.74e-4 5.86-0.0112 11.7-0.0251 17.6-0.0125 6.12-0.0137 12.2-0.0161 18.4-0.00622 11.6-0.0226 23.2-0.0427 34.8-0.0224 13.2-0.0334 26.4-0.0434 39.6-0.0209 27.1-0.0561 54.3-0.101 81.4h-3c-0.33-18.5-0.66-37-1-56-0.99-0.33-1.98-0.66-3-1-0.33 0.66-0.66 1.32-1 2-1.98-0.99-1.98-0.99-4-2 0.0157 0.589 0.0314 1.18 0.0476 1.78 0.0631 2.72 0.102 5.43 0.14 8.15 0.0251 0.926 0.0503 1.85 0.0762 2.81 0.0476 4.52-0.0792 8.26-1.77 12.5-2.45 6.5-1.78 13.4-1.62 20.2 0.0462 2.71 0.0825 5.41 0.117 8.12 0.0243 1.19 0.0487 2.38 0.0737 3.6-0.0659 2.84-0.0659 2.84-1.07 4.84-0.0482 3.07-0.042 6.12 0 9.19 0.0898 11.6-0.401 23.2-1 34.8h-2c-0.121 0.831-0.242 1.66-0.367 2.52-0.168 1.09-0.335 2.17-0.508 3.29-0.162 1.08-0.325 2.16-0.492 3.27-0.633 2.92-0.633 2.92-2.63 5.92-0.636 5.52 0.436 9.64 2.06 14.9 3.4 11.6 1.8 22.6-1.43 34-1.03 5.04-0.775 10.1-0.668 15.2 0.034 3.41-0.133 6.66-0.461 10-0.53 6.05-0.613 12.1-0.625 18.1-0.00451 0.923-0.00902 1.85-0.0137 2.8 0.0157 7.29 0.355 14.5 2.2 21.6 2.16 9.4 2.16 9.4-0.5 13.7-2.49 4.29-3.22 9.86-2.09 14.7 0.173 0.643 0.345 1.29 0.523 1.95 0.455 7.09 0.455 7.09-1 10-0.0963 1.7-0.131 3.41-0.133 5.12-0.00129 1.02-0.00258 2.04-0.00391 3.08 0.0058 1.6 0.0058 1.6 0.0117 3.23-0.00387 1.06-0.00773 2.13-0.0117 3.22 0.00193 1.53 0.00193 1.53 0.00391 3.09 0.00169 1.4 0.00169 1.4 0.00342 2.83 0.0298 2.56 0.0298 2.56 1.13 5.42 0.0973 2.83 0.14 5.63 0.133 8.46 9.57e-4 0.83 0.00191 1.66 0.0029 2.51 6.8e-4 1.75-0.00116 3.51-0.00534 5.26-0.00534 2.68-5.33e-5 5.36 0.00635 8.05-6.61e-4 1.71-0.00194 3.41-0.00391 5.12 0.00202 0.801 0.00405 1.6 0.00613 2.43-0.015 3.57-0.226 6.73-1.14 10.2-0.143 1.61-0.246 3.23-0.316 4.85-0.0628 1.4-0.0628 1.4-0.127 2.83-0.0393 0.971-0.0786 1.94-0.119 2.94-0.0432 0.947-0.0864 1.89-0.131 2.87-0.239 5.55-0.33 11.1-0.224 16.6-0.0823 1.89-0.0823 1.89-1.08 2.89-0.167 2.5-0.167 2.5 0 5 0.33 0.33 0.66 0.66 1 1 0.345 2.33 0.678 4.67 1 7 0.495 1.48 0.495 1.48 1 3-0.502 1.61-1.01 3.21-1.52 4.82-0.951 4.32-0.624 8.78-0.48 13.2h-3c-0.195 2.1-0.381 4.21-0.562 6.31-0.104 1.17-0.209 2.34-0.316 3.55-0.307 3.17-0.307 3.17 0.879 6.14 0.0964 2.68 0.139 5.32 0.125 8 0.0058 1.09 0.0058 1.09 0.0117 2.2-0.0059 3.2-0.119 5.75-1.14 8.8h-3c-0.66 2.31-1.32 4.62-2 7h-3c-0.33-0.66-0.66-1.32-1-2-1.21-0.65-1.21-0.65-2.44-1.31-2.98-1.96-3.57-3.33-4.56-6.69h5v-12h2c-0.309-0.866-0.619-1.73-0.938-2.62-1.5-5.01-1.4-10.2-1.52-15.4-0.178-0.994-0.356-1.99-0.539-3.01-1.92-1.49-1.92-1.49-4-2-0.254-5.46-0.254-5.46 1-8.14 1.4-4.01 1.17-7.71 1.06-11.9-0.0346-1.59-0.0647-3.19-0.0898-4.79-0.018-0.701-0.0359-1.4-0.0544-2.13 0.0818-2.03 0.0818-2.03 0.642-4.08 0.613-2.72-0.348-4.79-1.09-7.42-0.594-3.18-0.532-6.17-0.473-9.41 0.0727-4.27-0.0338-8.09-1-12.2-1.78-7.68-3.06-20.6 1.06-27.7 1.34-3.08 0.937-5.54 0.629-8.86-0.149-1.74-0.149-1.74-0.301-3.51-0.0858-2.7-0.0858-2.7-1.39-3.8-0.234-4.84-0.0532-9.08 1-13.8 2.52-12.8 3.13-31.9-1.04-44.3-1.73-5.66-1.13-11.7-1.03-17.6 0.0345-2.41 0.0646-4.82 0.0898-7.23 0.018-1.06 0.0359-2.12 0.0544-3.21-0.0776-2.78-0.5-5.22-1.08-7.94-0.106-1.43-0.176-2.86-0.211-4.3-0.0265-0.857-0.053-1.71-0.0803-2.6-0.0276-0.942-0.0553-1.88-0.0837-2.86-0.421-12.1-1.29-24.2-2.19-36.2-0.0701-0.939-0.14-1.88-0.212-2.84-0.403-5.39-0.812-10.8-1.23-16.2h-2v-6h2v-7c-0.66 0.33-1.32 0.66-2 1-0.468 2.34-0.827 4.7-1.12 7.06-0.168 1.29-0.335 2.58-0.508 3.91-0.182 1.5-0.182 1.5-0.367 3.03-0.33-0.66-0.66-1.32-1-2h-2v-6h2c-0.126-1.11-0.253-2.21-0.383-3.35-0.467-4.1-0.925-8.2-1.38-12.3-0.198-1.77-0.399-3.55-0.603-5.32-0.292-2.55-0.575-5.1-0.856-7.65-0.0927-0.794-0.185-1.59-0.281-2.41-0.365-3.37-0.583-5.72 0.503-8.98-0.683-3.72-1.54-7.36-2.41-11-0.792-4.76-0.402-9.3-0.0282-14.1 0.447-6.05 0.519-12.1 0.497-18.1-0.00326-0.976-0.00653-1.95-0.00989-2.96-0.0137-3.01-0.0323-6.02-0.0526-9.03-0.0266-4.03-0.0465-8.05-0.0625-12.1-0.0083-0.913-0.0166-1.83-0.0251-2.77-0.0033-0.849-0.00661-1.7-0.01-2.57-0.00786-1.11-0.00786-1.11-0.0159-2.25 0.117-2.15 0.559-4.01 1.11-6.08 0.0912-1.6 0.13-3.21 0.125-4.81 0.00258-0.811 0.00516-1.62 0.00781-2.46-0.0943-2.83-0.0943-2.83-0.605-6-0.597-4.23-0.888-8.41-1.09-12.7-0.0446-0.91-0.0893-1.82-0.135-2.76-0.278-6.71-0.313-13.4-0.259-20.1 0.00565-0.869 0.0113-1.74 0.0171-2.63 0.03-4.38 0.0774-8.75 0.153-13.1 0.148-12.3-0.815-23.6-5.34-35.2-3.93-10.2-2.81-20.6-1.88-31.2h-2c-0.266-0.831-0.531-1.66-0.805-2.52-0.353-1.09-0.706-2.17-1.07-3.29-0.348-1.08-0.696-2.16-1.05-3.27-0.99-3.05-0.99-3.05-3.07-5.92-0.195-2.26-0.195-2.26-0.125-4.69 0.018-0.808 0.0361-1.62 0.0547-2.45 0.0232-0.615 0.0464-1.23 0.0703-1.86h-2c0.0412 1.09 0.0825 2.19 0.125 3.31-0.125 3.69-0.125 3.69-2.12 6.69-1-1-1-1-1.1-3.07 0.0174-1.24 0.0174-1.24 0.0352-2.5 0.0135-1.24 0.0135-1.24 0.0273-2.5 0.0116-0.638 0.0232-1.28 0.0352-1.93h-2c-0.33 6.93-0.66 13.9-1 21h-1c-0.0606-0.999-0.121-2-0.184-3.03-0.0838-1.29-0.168-2.58-0.254-3.91-0.0812-1.29-0.162-2.58-0.246-3.9 0.0344-3.02 0.0344-3.02-1.32-4.16-1.4-19.8-0.788-38.4 11.6-54.7 16.1-17.4 38-19.6 57.4-7.31z" fill="#A8ABAB"/>
<path transform="translate(262 537)" d="m0 0c5.57 4.11 8.62 9.66 9.89 16.4 0.286 4.07 0.266 8.13 0.247 12.2 0.00242 1.23 0.00483 2.46 0.00732 3.73 0.00466 3.41 3.58e-4 6.83-0.00776 10.2-0.00662 3.7-0.00168 7.39 0.00179 11.1 0.00499 7.28-7.46e-4 14.6-0.00992 21.8-0.0104 8.6-0.00958 17.2-0.00848 25.8 0.00177 17.5-0.0103 35-0.0271 52.5-0.0127 13.3-0.0215 26.7-0.0279 40-0.0822 169-0.0822 169-0.51 251-0.0322 6.25-0.0601 12.5-0.0866 18.8-0.0349 8.13-0.0812 16.3-0.137 24.4-0.0193 2.86-0.0344 5.72-0.0455 8.57-0.0149 3.77-0.0453 7.54-0.0778 11.3-0.00216 1.08-0.00432 2.16-0.00654 3.28-0.0112 0.985-0.0223 1.97-0.0338 2.98-0.0083 1.26-0.0083 1.26-0.0168 2.55-0.504 4.62-2.06 7.67-5.64 10.6-0.585 0.489-1.17 0.977-1.77 1.48-6.13 4.41-12.5 4.36-19.9 3.33-6.26-2.7-11.1-6.39-15-12-0.545-2.76-0.545-2.76-0.607-5.82-0.032-1.17-0.0639-2.34-0.0968-3.54-0.0138-1.28-0.0276-2.56-0.0419-3.88-0.0278-1.38-0.0568-2.75-0.087-4.13-0.0898-4.54-0.133-9.08-0.167-13.6-0.00636-0.773-0.0127-1.55-0.0193-2.34-0.094-12-0.0839-23.9-0.0562-35.9 0.0102-4.91 0.0143-9.83 0.0191-14.7 0.00881-8.24 0.021-16.5 0.0358-24.7 0.0191-10.8 0.0312-21.6 0.0403-32.4 0.0393-46.1 0.123-92.3 0.216-138 0.00896-4.45 0.0179-8.9 0.0267-13.3 0.0022-1.1 0.00441-2.21 0.00668-3.35 0.0359-18.1 0.0605-36.3 0.0812-54.4 0.0217-18.8 0.0547-37.6 0.0984-56.4 0.0264-11.5 0.0442-23 0.0506-34.6 0.00524-7.83 0.0214-15.7 0.0463-23.5 0.014-4.51 0.0232-9.02 0.0193-13.5-0.0034-4.12 0.00691-8.25 0.0282-12.4 0.00528-1.49 0.00549-2.98 1.6e-4 -4.47-0.0065-2.02 0.00717-4.05 0.0218-6.07 0.0019-1.12 0.0038-2.25 0.00575-3.41 0.568-4.68 2.14-8.01 5.65-11.2 9-6.03 17.6-10 27.8-4.35z" fill="#A6A9A8"/>
<path transform="translate(930,362)" d="m0 0h1c0.00423 0.561 0.00846 1.12 0.0128 1.7 0.103 13.6 0.212 27.3 0.327 40.9 0.0553 6.59 0.109 13.2 0.158 19.8 0.0476 6.35 0.0999 12.7 0.156 19.1 0.0205 2.43 0.0392 4.86 0.0561 7.29 0.024 3.39 0.054 6.78 0.0856 10.2 0.00576 1.02 0.0115 2.03 0.0174 3.08 0.00979 0.919 0.0196 1.84 0.0297 2.78 0.00645 0.803 0.0129 1.61 0.0196 2.43-0.0592 1.84-0.0592 1.84 1.14 2.83 0.33-0.99 0.66-1.98 1-3 4.5-0.865 7.02-1.31 11 1-0.14 1.48-0.288 2.96-0.438 4.44-0.0812 0.824-0.162 1.65-0.246 2.5-0.316 2.07-0.316 2.07-1.32 3.07-0.233 1.68-0.413 3.37-0.562 5.06-0.0838 0.919-0.168 1.84-0.254 2.79-0.0606 0.71-0.121 1.42-0.184 2.15h2c0.247 0.742 0.495 1.48 0.75 2.25 1.08 2.85 1.08 2.85 3.38 4.69 1.88 2.06 1.88 2.06 2.12 5.31-0.0825 0.908-0.165 1.82-0.25 2.75h2c1.66 7.94 2.17 15.4 1.97 23.6-0.0682 3.35-0.0682 3.35 0.514 6.22 0.553 3.48 0.691 6.8 0.76 10.3 0.033 1.38 0.0662 2.75 0.0996 4.12 0.0469 2.13 0.0913 4.26 0.131 6.38 0.167 8.56 0.751 16.8 2.08 25.3 0.596 4.21 0.739 8.32 0.693 12.6 0.00773 0.737 0.0155 1.47 0.0234 2.23-0.0121 3.42-0.168 6.02-1.28 9.3-1.4 4.87-1.25 9.66-1.21 14.7 0.00194 1.6 0.00194 1.6 0.00392 3.24 0.0065 3.6 0.0271 7.2 0.0471 10.8 0.00662 2.61 0.0122 5.23 0.0167 7.84 0.0109 5.7 0.0281 11.4 0.0494 17.1 0.0547 14.8 0.0746 29.7 0.0911 44.5 0.0029 2.54 0.00616 5.07 0.00944 7.61 0.0359 29.5-0.0825 59-0.257 88.5-0.0125 2.14-0.0249 4.28-0.0374 6.41-0.118 20.1-0.244 40.1-0.383 60.2-0.0552 8-0.107 16-0.155 24-0.0285 4.65-0.0591 9.3-0.0954 13.9-0.137 17.7-0.212 35.3 0.698 53 0.235 4.61 0.229 9.2 0.146 13.8 0.108 3.29 1.17 6.21 2.08 9.36 0.325 3.95 0.348 7.89 0.379 11.8 0.017 1.13 0.034 2.26 0.0515 3.42 0.0529 3.6 0.0933 7.19 0.132 10.8 0.044 3.6 0.0908 7.2 0.143 10.8 0.0318 2.24 0.0587 4.47 0.0802 6.71 0.0154 8.63 0.0154 8.63 2.25 16.9 2.19 5.81 2.02 13.4 0.0625 19.2-1.1 2.18-1.1 2.18-3.1 5.31h2c0.0545 1.73 0.093 3.46 0.125 5.19 0.0232 0.963 0.0464 1.93 0.0703 2.92-0.205 3.05-1.05 5.09-2.2 7.89-0.167 2.27-0.167 2.27 0 4.5 0.0735 2.8 0.0742 4.32-1 6.94-1.91 4.91-1.25 10.3-0.664 15.5 0.826 7.33 0.237 13.5-1.22 20.6-1.18 6.03-1.24 11.8-1.09 17.9-0.0352 4.57-0.796 8.87-1.59 13.4-0.59 4.3-0.496 8.49-0.312 12.8-0.106 2.84-0.473 5.05-1.11 7.79-1.35 6.34-1.28 12.6-1.22 19.1 0.0186 2.07 0.0205 4.15 0.0203 6.22-0.566 6.02-0.566 6.02 1.19 11.3 0.0484 2.4 0.0426 4.78 0 7.19-0.0813 6.78 0.285 13.4 0.977 20.1 0.00773 0.889 0.0155 1.78 0.0234 2.7-0.66 0.66-1.32 1.32-2 2-0.517 2.48-0.898 4.86-1.19 7.38-0.0875 0.738-0.175 1.48-0.265 2.24-0.932 9.15-0.247 18.2 0.453 27.4-5.75 3-5.75 3-8 3-0.0541 2.42-0.0937 4.83-0.125 7.25-0.0168 0.682-0.0335 1.36-0.0508 2.07-0.0364 3.74 0.0963 6.51 2.18 9.68h2c0.977 1.73 1.95 3.45 2.93 5.18 0.965 1.64 2.01 3.24 3.07 4.82v3c1.32 0.66 2.64 1.32 4 2v2h2c0.33 0.99 0.66 1.98 1 3 1.87 1.02 1.87 1.02 4.06 1.69 1.1 0.377 1.1 0.377 2.22 0.762 0.566 0.182 1.13 0.364 1.71 0.551-0.175 0.616-0.351 1.23-0.531 1.87-0.533 2.42-0.098 3.77 0.531 6.13-0.33 0.66-0.66 1.32-1 2h-2v3h2c-0.33 0.99-0.66 1.98-1 3-11.4-2.15-21.3-7.77-28.6-16.9-5.74-8.78-6.55-18.2-6.96-28.4-0.0422-1.05-0.0844-2.09-0.128-3.17-0.499-13.8-0.439-27.6-0.409-41.4 0.00782-4.11 0.00957-8.23 0.0122-12.3 0.00533-7.19 0.0144-14.4 0.0261-21.6 0.0173-10.7 0.0287-21.4 0.039-32.1 0.0186-19.1 0.043-38.3 0.0699-57.4 0.0236-16.8 0.0452-33.6 0.0648-50.4 0.00131-1.12 0.00262-2.24 0.00397-3.39 0.00532-4.54 0.0106-9.08 0.0159-13.6 0.0497-42.6 0.105-85.2 0.164-128 0.0514-37.6 0.0981-75.2 0.141-113 0.0478-42.4 0.0985-84.8 0.154-127 0.00446-3.42 0.00891-6.84 0.0134-10.3 0.00295-2.27 0.00591-4.54 0.00886-6.81 0.0203-15.6 0.039-31.2 0.0564-46.8 0.0293-26.2 0.0627-52.4 0.104-78.6 0.00154-0.982 0.00308-1.96 0.00466-2.98 0.1-63.7 0.405-127 1.22-191z" fill="#A6A9A8"/>
<path transform="translate(996,460)" d="m0 0c2.4 4.2 2.16 7.24 2 12h3v-11h1v841h-2v2h-2c-0.33-0.66-0.66-1.32-1-2h-2c-0.33 0.66-0.66 1.32-1 2-0.291-0.566-0.583-1.13-0.883-1.71-2.6-4.92-2.6-4.92-7.43-7.29h-2.69c-0.33-1.98-0.66-3.96-1-6h-2v-2h-2v-2h-2v-2h-2c-0.33-1.32-0.66-2.64-1-4h-2v-3h-3c-1.64-7.21-1.56-14.8 0-22h2c-0.0232-1.12-0.0464-2.24-0.0703-3.39-0.0188-1.47-0.037-2.95-0.0547-4.42-0.0168-0.738-0.0335-1.48-0.0508-2.24-0.035-3.86-0.0182-5.66 2.18-8.95h2v-14c-1.65-0.33-3.3-0.66-5-1-2.62-3.29-2.48-7.45-2.69-11.5-0.0398-0.705-0.0796-1.41-0.121-2.14-0.337-7.13-0.467-14.5 1.81-21.4 1.65-0.33 3.3-0.66 5-1v-2h-2v-14h-4v-4h-2c-0.864-9.99-1.13-19.9-1.06-29.9 0.00503-1.38 0.00959-2.76 0.0137-4.14 0.0116-3.33 0.028-6.65 0.0488-9.98h-3c-2.8-5.6-1.57-15.9 0.125-21.8 0.433-1.58 0.433-1.58 0.875-3.19-0.66-0.66-1.32-1.32-2-2-0.272-3.02-0.0868-5.96 0-9 4.62-0.33 9.24-0.66 14-1-0.0116-1.44-0.0232-2.87-0.0352-4.36-0.0521-9.51-0.0898-18.9 0.914-28.4 0.31-2.3 0.31-2.3-0.879-4.27h2c-0.66-1.65-1.32-3.3-2-5h2c-0.0236-0.907-0.0236-0.907-0.0476-1.83-0.0627-2.76-0.101-5.53-0.14-8.29-0.0251-0.951-0.0503-1.9-0.0762-2.88-0.0145-1.39-0.0145-1.39-0.0293-2.81-0.0157-0.848-0.0314-1.7-0.0476-2.57 0.341-2.61 0.341-2.61 1.83-5.11 2.06-4.76 2-8.96 2.04-14.1 0.0192-1.06 0.0384-2.12 0.0582-3.21 0.0587-3.53 0.0949-7.06 0.13-10.6 0.0341-2.51 0.0686-5.02 0.104-7.53 0.339-27.2 0.0969-54.4-0.192-81.6-0.129-12.1-0.243-24.2-0.354-36.4-0.0184-2-0.0369-4-0.0554-6-0.182-20-0.279-40-0.29-60-0.00135-1.99-0.00394-3.98-0.00655-5.97-0.015-13.7 0.0632-27.3 0.704-41 0.664-16.8 0.0404-33.7-0.5-50.5-0.0227-0.716-0.0455-1.43-0.0689-2.17-0.154-4.83-0.317-9.65-0.486-14.5-0.0418-1.23-0.0835-2.46-0.127-3.73-0.241-6.56-0.625-13.1-1.23-19.6-0.567-6.88-0.263-13 1.2-19.8 2.98-14.8 3.13-29.5 2.08-44.5-3.28-47-3.28-47 1.5-61.4-0.23-1.89-0.465-3.79-0.733-5.67-0.484-4.22-0.41-8.45-0.392-12.7-0.0058-1.35-0.0058-1.35-0.0117-2.73 0.00129-0.86 0.00258-1.72 0.00391-2.61 0.00113-0.776 0.00226-1.55 0.00342-2.35 0.129-1.94 0.129-1.94 1.13-3.94 0.218-1.45 0.39-2.9 0.535-4.35 0.087-0.851 0.174-1.7 0.264-2.58 0.087-0.889 0.174-1.78 0.264-2.7 0.0909-0.897 0.182-1.79 0.275-2.72 0.224-2.22 0.445-4.44 0.662-6.66h2c-0.0773-1.09-0.0773-1.09-0.156-2.2 0.179-3.22 1.02-4.87 2.66-7.61 0.696-1.19 0.696-1.19 1.41-2.39 0.361-0.592 0.722-1.18 1.09-1.79h2c0.33-0.99 0.66-1.98 1-3v4c2.27-1.84 2.27-1.84 2.2-4.6-0.0232-0.998-0.0464-2-0.0703-3.02-0.018-1-0.0361-2.01-0.0547-3.04-0.0232-0.771-0.0464-1.54-0.0703-2.34z" fill="#A6A9A8"/>
<path transform="translate(801 332)" d="m0 0c8.14 5.24 14 11.6 17.4 20.7 1.86 9.14 1.89 18.4 1.86 27.7 1.46e-4 1.25 2.92e-4 2.5 4.43e-4 3.79-5.73e-4 3.39-0.00555 6.78-0.0126 10.2-0.0063 3.56-0.00684 7.12-0.00803 10.7-0.00309 6.72-0.0113 13.4-0.0213 20.2-0.0112 7.66-0.0167 15.3-0.0217 23-0.0104 15.7-0.028 31.5-0.0503 47.2h-2c0.0206 0.928 0.0412 1.86 0.0625 2.81-0.0625 3.19-0.0625 3.19-1.06 6.19 0.0309 0.777 0.0619 1.55 0.0938 2.36-0.114 3.22-1.08 5.13-2.59 7.96-0.464 0.883-0.928 1.77-1.41 2.68-0.361 0.664-0.722 1.33-1.09 2.01h-1c0.0206-1.13 0.0412-2.27 0.0625-3.44 0.353-3.38 0.353-3.38-1.06-4.56-2.17 6.77-2.17 6.77-3.44 13.8-0.683 3.95-2.24 6.01-4.56 9.25-3.93 6.21-4.75 11.9-5.19 19.2-0.137 1.93-0.276 3.86-0.418 5.79-0.0531 0.845-0.106 1.69-0.161 2.56-0.241 2.54-0.692 4.97-1.23 7.46h-2v3h-2c-0.33 4.62-0.66 9.24-1 14h-1v-8c-0.99-0.33-1.98-0.66-3-1-0.688-2.06-0.688-2.06-1-4h-3c-2.15-3.23-2.2-4.28-2-8-2.31-0.33-4.62-0.66-7-1v-10c-1.65-0.33-3.3-0.66-5-1v-2c-0.99-0.33-1.98-0.66-3-1-0.33-0.66-0.66-1.32-1-2-0.495 0.99-0.495 0.99-1 2h-3c-0.33-0.66-0.66-1.32-1-2-0.495 0.99-0.495 0.99-1 2h-2c-2.06-3.09-2.25-3.67-2.21-7.15 0.00334-0.852 0.00668-1.7 0.0101-2.58 0.0135-0.94 0.027-1.88 0.0409-2.85 0.00556-1 0.0111-2.01 0.0169-3.04 0.0125-2.22 0.0293-4.43 0.0495-6.65 0.0547-6.2 0.073-12.4 0.0898-18.6 0.00204-0.669 0.00409-1.34 0.00619-2.03 0.0459-16.5-0.19-32.9-0.429-49.4-0.687-47.2-0.687-47.2-0.75-69.7-0.00672-2.08-0.0169-4.16-0.0308-6.24-0.179-28.4-0.179-28.4 8.21-38.8 0.92-1.25 0.92-1.25 1.86-2.52 2.3-2.67 4.53-4.3 7.52-6.16 0.915-0.581 1.83-1.16 2.77-1.76 8.68-4.72 18.8-5.54 27.7-0.941z" fill="#A8AAAB"/>
<path transform="translate(622 400)" d="m0 0c7.19 5.14 12.5 12.5 14.1 21.2 0.545 4.96 0.404 9.92 0.312 14.9-0.00735 3.68-0.00735 3.68 0.559 7.39 0.805 7.06 0.634 14.2 0.617 21.3-2.82e-4 1.61-1.23e-4 3.21 4.43e-4 4.82 2.86e-4 4.34-0.00557 8.68-0.0126 13-0.00627 4.54-0.00684 9.09-0.00803 13.6-0.0031 8.6-0.0113 17.2-0.0213 25.8-0.0112 9.79-0.0167 19.6-0.0217 29.4-0.0104 20.1-0.028 40.3-0.0503 60.4h-2v-26h-4c0.0157 1.11 0.0157 1.11 0.0317 2.25 0.0415 3.36 0.0676 6.71 0.0933 10.1 0.0168 1.17 0.0335 2.33 0.0508 3.54 0.00967 1.68 0.00967 1.68 0.0195 3.39 0.0157 1.55 0.0157 1.55 0.0317 3.13-0.227 2.64-0.227 2.64-2.23 5.64v-2h-2c0.165 1.11 0.33 2.23 0.5 3.38 0.0446 6.27-4.45 10.3-8.5 14.6-0.691 0.743-1.38 1.48-2.09 2.25-2.27 2.08-3.89 2.41-6.91 2.75v2c-1.32 0.33-2.64 0.66-4 1-0.33-0.99-0.66-1.98-1-3h-2v-6h-2c-0.17-0.969-0.34-1.94-0.516-2.94-1.45-8.06-3.12-16-5.21-23.9-0.737-2.81-1.27-5.22-1.27-8.14h-2c-0.504-2.44-1-4.87-1.5-7.31-0.143-0.69-0.286-1.38-0.434-2.09-0.593-2.92-1.07-5.61-1.07-8.6h-3c-0.0142-0.675-0.0284-1.35-0.043-2.05-0.172-5.81-0.172-5.81-3.39-10.4-0.846-0.516-1.69-1.03-2.56-1.56-2.26-3.39-2.26-4.56-2.27-8.53-0.00998-1.15-0.02-2.3-0.0302-3.49-6.65e-4 -1.26-0.00133-2.53-0.00201-3.83-0.00762-1.34-0.016-2.69-0.0252-4.03-0.022-3.65-0.0307-7.31-0.0358-11-0.00364-2.29-0.00988-4.57-0.017-6.86-0.0245-7.98-0.0375-16-0.0411-23.9-0.00363-7.42-0.0335-14.8-0.0754-22.3-0.0348-6.38-0.0501-12.8-0.0508-19.1-7.91e-4 -3.81-0.00943-7.62-0.038-11.4-0.0263-3.59-0.0283-7.18-0.0123-10.8 0.00266-1.93-0.0193-3.86-0.0422-5.79 0.093-11.1 3.83-18.9 11.4-27 9.93-8.73 21.2-9.93 32.8-3.77z" fill="#A8AAAA"/>
<path transform="translate(1158,211)" d="m0 0c0.66 0.33 1.32 0.66 2 1v2c0.928 0.124 0.928 0.124 1.88 0.25 2.12 0.75 2.12 0.75 3.25 2.75 0.289 0.66 0.578 1.32 0.875 2 0.66 0.33 1.32 0.66 2 1v2h2c3.43 8.43 3.43 8.43 3 13h4v3c0.495-1.49 0.495-1.49 1-3h2c1.56 11.2 2.23 21.7 1 33h-3c-0.0606 0.86-0.121 1.72-0.184 2.61-1.7 24-1.7 24-2.82 33.4h-3c-0.144 1.13-0.289 2.27-0.438 3.44-0.0812 0.638-0.162 1.28-0.246 1.93-0.104 0.868-0.209 1.74-0.316 2.63-0.0852 0.626-0.17 1.25-0.258 1.9-0.778 6.14-0.825 12.2-0.742 18.4 0.0256 1.92 0.0466 3.84 0.0625 5.77 0.0116 0.838 0.0232 1.68 0.0352 2.54-0.103 2.58-0.589 4.92-1.1 7.44-0.0656 1.57-0.0857 3.15-0.0625 4.72 0.0116 1.3 0.0116 1.3 0.0234 2.63 0.0193 1.34 0.0193 1.34 0.0391 2.71 0.0256 1.78 0.0466 3.57 0.0625 5.35 0.0116 0.785 0.0232 1.57 0.0352 2.38-0.0977 2.21-0.526 4.08-1.1 6.21-0.148 2.1-0.271 4.21-0.375 6.31-0.37 5.32-1.26 8.96-3.62 13.7-0.691 2.78-0.691 2.78-1 5h-3c-0.049 0.762-0.098 1.52-0.148 2.31-0.35 4.83-0.703 9.54-1.85 14.3-0.971 4.02-1.39 7.94-1.72 12.1-0.363 4.42-0.779 8.84-1.21 13.2-0.0748 0.821-0.15 1.64-0.227 2.49-0.496 4.95-1.12 9.24-4.09 13.4-2.43 1.74-4.83 1.82-7.75 2.25 0.0232-1 0.0464-2.01 0.0703-3.04 0.139-8.86-0.395-17.2-2.07-26-0.99-0.33-1.98-0.66-3-1 1.48 2.48 1.48 2.48 3 5h-2v2h2v24h-2c-0.33 1.65-0.66 3.3-1 5-4.66-1.47-4.66-1.47-6.15-3.78-2.25-5.91-0.908-13.1 0.152-19.2 1.32-0.33 2.64-0.66 4-1 0.33 0.99 0.66 1.98 1 3 0.0272-1.58 0.0465-3.17 0.0625-4.75 0.0116-0.882 0.0232-1.76 0.0352-2.67-0.0905-2.39-0.293-4.33-1.1-6.58-0.66-0.33-1.32-0.66-2-1v2h2v3h-4c-0.0561-0.947-0.0561-0.947-0.113-1.91-0.391-5.33-1.14-10.3-2.45-15.5-2.17-9.44-1.71-19-1.44-28.6h-2c-0.993-5.71-1.1-11.2-1-17-0.66-0.33-1.32-0.66-2-1-0.0292-3.23-0.0469-6.46-0.0625-9.69-0.00838-0.912-0.0168-1.82-0.0254-2.76-0.00483-1.33-0.00483-1.33-0.00977-2.69-0.00524-0.812-0.0105-1.62-0.0159-2.46 0.121-2.55 0.612-4.9 1.11-7.4 0.0656-1.55 0.0858-3.1 0.0625-4.65-0.00773-0.859-0.0155-1.72-0.0234-2.6-0.026-1.78-0.052-3.57-0.0781-5.35-0.0415-4.62 0.259-8.83 1.04-13.4-0.156-4.92-0.414-10.1-3.62-14-1.24-1.09-2.49-2.16-3.75-3.22-2.97-3.29-3.2-7.52-3.62-11.8h-2v10c-2.3-3.44-2.54-5.94-3-10h-2c-2.05-3.07-2.27-3.88-2.41-7.38-0.0388-0.891-0.0775-1.78-0.117-2.7-0.0309-0.966-0.0617-1.93-0.0935-2.93-0.0379-0.997-0.0759-1.99-0.115-3.02-0.419-12.3-0.353-24.7-0.26-37 0.66 0.66 1.32 1.32 2 2 0.495-4.45 0.495-4.45 1-9 0.66 0.99 1.32 1.98 2 3 3.05 0.158 3.05 0.158 6-1 1.62-0.0991 3.25-0.181 4.88-0.25 5.06-0.483 6.83-1.77 10.1-5.75 5.9-6.11 12.1-9.06 20-12 2.74-1.37 4.97-1.13 8-1z" fill="#A8AAAA"/>
<path transform="translate(617,785)" d="m0 0c2 2 2 2 2.2 3.95-0.0651 2.02-0.13 4.04-0.195 6.05h2c3.03 5.86 2.27 12 1.5 18.3-0.578 5.25-0.613 10.5-0.625 15.8-0.00451 0.839-0.00902 1.68-0.0137 2.54 0.00193 0.823 0.00387 1.65 0.00586 2.49 0.00169 1.09 0.00169 1.09 0.00342 2.2 0.11 2.3 0.345 4.52 0.631 6.81 0.521 4.64 0.627 9.19 0.596 13.9-0.00143 0.85-0.00287 1.7-0.00435 2.58-0.00375 1.84-0.00981 3.68-0.018 5.52-0.0131 2.95-0.0201 5.91-0.0255 8.86-0.00832 4.22-0.0191 8.44-0.0318 12.7-0.0317 10.9-0.0414 21.8-0.0454 32.8-6.41e-4 1.61-6.41e-4 1.61-0.0013 3.26-0.00358 18 0.119 36.1 0.466 54.1 0.0197 1.09 0.0395 2.18 0.0598 3.3 0.184 9.84 0.383 19.6 1.35 29.4 0.155 2.64-0.025 5.07-0.35 7.68-0.698 6.01-0.3 11.9 0.0938 17.9 0.528 8.1 0.461 15.9-0.34 24-0.58 6.88-0.661 13.8-0.859 20.7-0.0374 1.16-0.0748 2.32-0.113 3.51-0.0303 1.05-0.0606 2.09-0.0918 3.17-0.189 2.64-0.189 2.64-1.19 5.64-1.85 0.73-1.85 0.73-4.06 1.19-1.1 0.238-1.1 0.238-2.22 0.48-0.849 0.164-0.849 0.164-1.71 0.332-0.133 0.71-0.266 1.42-0.402 2.15-0.177 0.919-0.353 1.84-0.535 2.79-0.174 0.917-0.348 1.83-0.527 2.78-0.535 2.29-0.535 2.29-1.54 3.29-1.85 0.0723-3.71 0.0838-5.56 0.0625-1.01-0.00902-2.02-0.018-3.07-0.0273-1.17-0.0174-1.17-0.0174-2.37-0.0352-1.58 7.15-2.63 14.3-3.54 21.6-0.386 2.84-0.862 5.62-1.46 8.42 3.08 0.991 4.92 0.925 8 0h2c0.66-0.99 1.32-1.98 2-3v3h5c0.0825 1.05 0.165 2.1 0.25 3.19 0.81 4.12 2.02 5.73 4.75 8.81v2h2c0.731 1.98 1.39 3.98 2 6-0.33 0.66-0.66 1.32-1 2h2c0.506 1.44 1 2.87 1.5 4.31 0.278 0.801 0.557 1.6 0.844 2.43 0.656 2.26 0.656 2.26 0.656 5.26 0.66 0.33 1.32 0.66 2 1 1.05 3.15 1.1 5.39 1.06 8.69-0.00902 0.994-0.018 1.99-0.0273 3.01-0.0116 0.759-0.0232 1.52-0.0352 2.3 1.98 0.33 3.96 0.66 6 1 0.865 2.71 1.27 4.22 1 7-4.34 8.22-11.5 12.9-20 16-7.79 1.97-13.2 0.788-20.1-3.14-8.36-5.43-13-10.2-15.9-19.9-0.52-3.97-0.518-7.88-0.47-11.9-0.00219-1.14-0.00438-2.29-0.00664-3.47-0.0023-3.75 0.0239-7.5 0.0508-11.3 0.00493-2.62 0.00822-5.24 0.00996-7.86 0.00642-5.47 0.0276-10.9 0.0591-16.4 0.0404-7.02 0.0577-14 0.0673-21.1 0.0092-6.7 0.0298-13.4 0.0511-20.1 0.0034-1.28 0.00679-2.56 0.0103-3.87 0.0116-3.61 0.0301-7.22 0.051-10.8 0.00269-1.07 0.00538-2.14 0.00815-3.24 0.00716-0.985 0.0143-1.97 0.0217-2.99 0.00427-0.853 0.00855-1.71 0.0129-2.58 0.141-2.56 0.574-4.94 1.13-7.43 0.66 0.66 1.32 1.32 2 2 0.99-0.33 1.98-0.66 3-1v3h2c0.33-0.99 0.66-1.98 1-3h10c-0.167-0.997-0.335-1.99-0.508-3.02-0.557-3.92-0.514-7.7-0.371-11.7 0.0236-0.7 0.0472-1.4 0.0715-2.12 0.0758-2.21 0.16-4.42 0.245-6.63 0.0533-1.51 0.106-3.02 0.158-4.53 0.128-3.68 0.264-7.36 0.404-11h2c-0.00786-0.96-0.00786-0.96-0.0159-1.94-0.0209-2.92-0.0338-5.83-0.0466-8.75-0.00838-1.01-0.0168-2.01-0.0254-3.05-0.00483-1.46-0.00483-1.46-0.00977-2.96-0.00786-1.34-0.00786-1.34-0.0159-2.71 0.115-2.63 0.598-5.01 1.11-7.59 0.0666-1.69 0.0854-3.38 0.0625-5.06-0.00773-0.963-0.0155-1.93-0.0234-2.92-0.0256-1.98-0.0517-3.96-0.0781-5.95-0.0403-5.07 0.0787-10 0.528-15.1 0.555-6.95 0.697-13.9 0.758-20.8 0.0245-1.96 0.0491-3.93 0.0742-5.89 0.0597-4.75 0.111-9.51 0.157-14.3 0.138-14 0.397-27.9 1.83-41.9 0.672-6.55 0.913-13 0.754-19.6-0.111-6.01 0.0112-11.6 0.938-17.6 0.0898-2.39 0.13-4.79 0.125-7.19 0.00258-1.19 0.00516-2.38 0.00781-3.61-0.0517-3.28-0.355-6.5-0.688-9.76-0.63-7.2-0.209-14.2 0.305-21.4 0.0748-1.3 0.15-2.59 0.227-3.93 0.0851-1.24 0.17-2.48 0.258-3.76 0.0744-1.12 0.149-2.24 0.226-3.39 0.575-3.12 1.44-4.6 3.54-6.93 1.04 3.13 0.934 3.99 0 7h2v-7h3v7h2v-10z" fill="#A8ABA9"/>
<path transform="translate(1327,361)" d="m0 0c0.33 0.66 0.66 1.32 1 2h2c2.3 13.6 2.3 13.6 2 20h2c1.62 3.58 2.26 6.42 2.31 10.3 0.0251 0.999 0.0503 2 0.0762 3.03 0.0352 2.09 0.0664 4.17 0.0938 6.26-0.00153 7.27-0.00153 7.27 3.52 13.4 2.02 0.806 2.02 0.806 4.19 0.812 1.89 0.0928 1.89 0.0928 3.81 0.188v-4h2c0.33-0.99 0.66-1.98 1-3v15h-2c-0.121 0.831-0.242 1.66-0.367 2.52-0.251 1.63-0.251 1.63-0.508 3.29-0.244 1.62-0.244 1.62-0.492 3.27-0.633 2.92-0.633 2.92-2.63 5.92-0.636 5.52 0.436 9.64 2.06 14.9 3.4 11.6 1.8 22.6-1.43 34-1.03 5.04-0.775 10.1-0.668 15.2 0.034 3.41-0.133 6.66-0.461 10-0.53 6.05-0.613 12.1-0.625 18.1-0.00451 0.923-0.00902 1.85-0.0137 2.8 0.0157 7.29 0.355 14.5 2.2 21.6 2.16 9.4 2.16 9.4-0.5 13.7-2.49 4.29-3.22 9.86-2.09 14.7 0.173 0.643 0.345 1.29 0.523 1.95 0.455 7.09 0.455 7.09-1 10-0.0963 1.7-0.131 3.41-0.133 5.12-0.00129 1.02-0.00258 2.04-0.00391 3.08 0.0058 1.6 0.0058 1.6 0.0117 3.23-0.00387 1.06-0.00773 2.13-0.0117 3.22 0.00193 1.53 0.00193 1.53 0.00391 3.09 0.00169 1.4 0.00169 1.4 0.00342 2.83 0.0298 2.56 0.0298 2.56 1.13 5.42 0.0973 2.83 0.14 5.63 0.133 8.46 9.57e-4 0.83 0.00191 1.66 0.0029 2.51 6.8e-4 1.75-0.00116 3.51-0.00534 5.26-0.00534 2.68-5.33e-5 5.36 0.00635 8.05-6.61e-4 1.71-0.00194 3.41-0.00391 5.12 0.00202 0.801 0.00405 1.6 0.00613 2.43-0.015 3.57-0.226 6.73-1.14 10.2-0.143 1.61-0.246 3.23-0.316 4.85-0.0628 1.4-0.0628 1.4-0.127 2.83-0.0393 0.971-0.0786 1.94-0.119 2.94-0.0648 1.42-0.0648 1.42-0.131 2.87-0.239 5.55-0.33 11.1-0.224 16.6-0.0823 1.89-0.0823 1.89-1.08 2.89-0.167 2.5-0.167 2.5 0 5 0.33 0.33 0.66 0.66 1 1 0.345 2.33 0.678 4.67 1 7 0.495 1.48 0.495 1.48 1 3-0.502 1.61-1.01 3.21-1.52 4.82-0.951 4.32-0.624 8.78-0.48 13.2h-3c-0.195 2.1-0.381 4.21-0.562 6.31-0.104 1.17-0.209 2.34-0.316 3.55-0.307 3.17-0.307 3.17 0.879 6.14 0.0964 2.68 0.139 5.32 0.125 8 0.0058 1.09 0.0058 1.09 0.0117 2.2-0.0059 3.2-0.119 5.75-1.14 8.8h-3c-0.66 2.31-1.32 4.62-2 7h-3c-0.33-0.66-0.66-1.32-1-2-0.804-0.433-1.61-0.866-2.44-1.31-2.98-1.96-3.57-3.33-4.56-6.69h5v-12h2c-0.309-0.866-0.619-1.73-0.938-2.62-1.5-5.01-1.4-10.2-1.52-15.4-0.178-0.994-0.356-1.99-0.539-3.01-1.92-1.49-1.92-1.49-4-2-0.254-5.46-0.254-5.46 1-8.14 1.4-4.01 1.17-7.71 1.06-11.9-0.0346-1.59-0.0647-3.19-0.0898-4.79-0.018-0.701-0.0359-1.4-0.0544-2.13 0.0818-2.03 0.0818-2.03 0.642-4.08 0.613-2.72-0.348-4.79-1.09-7.42-0.594-3.18-0.532-6.17-0.473-9.41 0.0727-4.27-0.0338-8.09-1-12.2-1.78-7.68-3.06-20.6 1.06-27.7 1.34-3.08 0.937-5.54 0.629-8.86-0.149-1.74-0.149-1.74-0.301-3.51-0.0858-2.7-0.0858-2.7-1.39-3.8-0.234-4.84-0.0532-9.08 1-13.8 2.52-12.8 3.13-31.9-1.04-44.3-1.73-5.66-1.13-11.7-1.03-17.6 0.0345-2.41 0.0646-4.82 0.0898-7.23 0.018-1.06 0.0359-2.12 0.0544-3.21-0.0776-2.78-0.5-5.22-1.08-7.94-0.106-1.43-0.176-2.86-0.211-4.3-0.0265-0.857-0.053-1.71-0.0803-2.6-0.0276-0.942-0.0553-1.88-0.0837-2.86-0.421-12.1-1.29-24.2-2.19-36.2-0.105-1.41-0.105-1.41-0.212-2.84-0.403-5.39-0.812-10.8-1.23-16.2h-2v-6h2v-7c-0.99 0.495-0.99 0.495-2 1-0.468 2.34-0.827 4.7-1.12 7.06-0.168 1.29-0.335 2.58-0.508 3.91-0.121 0.999-0.242 2-0.367 3.03-0.33-0.66-0.66-1.32-1-2h-2v-6h2c-0.126-1.11-0.253-2.21-0.383-3.35-0.467-4.1-0.925-8.2-1.38-12.3-0.198-1.77-0.399-3.55-0.603-5.32-0.292-2.55-0.575-5.1-0.856-7.65-0.0927-0.794-0.185-1.59-0.281-2.41-0.365-3.37-0.583-5.72 0.503-8.98-0.445-2.42-0.95-4.79-1.5-7.19-1.79-8.53-1.45-16.2-0.5-24.8 0.0993-0.991 0.199-1.98 0.301-3 0.21-2 0.45-4 0.699-6 0.33 1.32 0.66 2.64 1 4l4 1v-5c0.33 1.32 0.66 2.64 1 4 2.64 0.33 5.28 0.66 8 1 0.33-1.65 0.66-3.3 1-5h2v-4h2c-0.0206-1.2-0.0412-2.39-0.0625-3.62-0.00633-3.56 0.364-6.88 1.06-10.4z" fill="#A8ABA9"/>
<path transform="translate(452,923)" d="m0 0h2c0.0251 1.09 0.0501 2.18 0.0759 3.3 0.0952 4.09 0.195 8.19 0.296 12.3 0.0429 1.76 0.0846 3.52 0.125 5.28 0.0587 2.55 0.122 5.1 0.186 7.66 0.0167 0.769 0.0334 1.54 0.0506 2.33 0.112 4.25 0.371 8.46 0.77 12.7 0.529 6.25 0.644 12.4 0.642 18.7 0.00336 1.16 0.00672 2.32 0.0102 3.52 0.00943 3.81 0.0114 7.62 0.0125 11.4 0.0024 2 0.00481 4 0.00746 6 0.00811 6.29 0.0106 12.6 0.00987 18.9-5.97e-4 6.42 0.00989 12.8 0.0257 19.3 0.0132 5.57 0.0184 11.1 0.0178 16.7-2.51e-4 3.3 0.00332 6.6 0.0132 9.9 0.0352 13-0.121 26-1.07 38.9-0.0692 1.02-0.138 2.05-0.21 3.1-0.706 8.48-2.36 14.2-8.96 20-0.763 0.701-1.53 1.4-2.31 2.12-5.52 3.85-10.6 5.59-17.3 4.51-7.08-1.91-14.7-5.85-19.4-11.6-2.64-5.18-3.37-9.22-3.15-15 0.0309-1.69 0.0581-3.38 0.0825-5.08 0.0152-0.932 0.0305-1.86 0.0462-2.82 0.0451-5.84-0.106-11.7-0.23-17.5-0.0504-2.6-0.101-5.21-0.15-7.81-0.0784-4-0.158-8.01-0.244-12-0.548-25.8-0.548-25.8 0.415-36.9 0.318-5.24 0.29-10.5 0.261-15.7-0.00554-1.05-0.0111-2.09-0.0168-3.17-0.0276-4.35-0.0629-8.7-0.106-13.1-0.0301-3.21-0.0479-6.43-0.0642-9.64-0.0202-1.48-0.0202-1.48-0.0408-2.99-0.00338-0.912-0.00676-1.82-0.0102-2.76-0.00746-0.801-0.0149-1.6-0.0226-2.43 0.234-2.08 0.234-2.08 2.23-5.08v3l2-1c0.656-2.53 0.656-2.53 1-5h1v6c1.49-0.495 1.49-0.495 3-1 0.821-3.71 1.24-7.32 1.5-11.1 0.0825-1.15 0.165-2.3 0.25-3.48 0.167-2.41 0.334-4.83 0.5-7.24 0.0825-1.14 0.165-2.29 0.25-3.47 0.0722-1.05 0.144-2.09 0.219-3.17 0.281-2.53 0.281-2.53 1.28-4.53h2v-2h2c0.66-2.64 1.32-5.28 2-8h2v-2h9c1.19 3.57 1.06 6.33 0.992 10.1-0.0175 1.44-0.0345 2.88-0.0508 4.32-0.0307 2.25-0.0658 4.5-0.113 6.75-0.186 9.45 0.308 17.7 3.17 26.8 0.495 1.83 0.495 1.83 1 3.69 0.33 0.763 0.66 1.53 1 2.31 0.99 0.33 1.98 0.66 3 1 0.33 6.27 0.66 12.5 1 19 0.604-12.6 1.15-25.1 0.963-37.7-0.0431-3.93 0.0522-7.5 1.04-11.3h1c0.73 16.3 1.39 32.7 2 49 0.607-11.9 1.06-23.9 0.938-35.8-0.147-16.1 1.02-32.1 2.06-48.2z" fill="#A7AAAB"/>
<path transform="translate(1142,620)" d="m0 0c0.33 0.66 0.66 1.32 1 2 1.48 0.247 1.48 0.247 3 0.5 1.48 0.247 1.48 0.247 3 0.5 1.2 2.39 1.09 3.8 1.03 6.46-0.0122 0.882-0.0245 1.76-0.0371 2.67-0.0351 1.86-0.0741 3.72-0.117 5.59-0.011 0.884-0.0219 1.77-0.0332 2.68-0.0253 1.21-0.0253 1.21-0.051 2.45 0.0708 2.44 0.0708 2.44 2.21 5.14 0.16 3.29 0.16 3.29 0.0625 7.19-0.108 4.63 0.0689 8.96 0.704 13.5 0.498 4.85 0.376 9.72 0.359 14.6 0.0058 1.6 0.0058 1.6 0.0117 3.22-0.00129 1.06-0.00258 2.11-0.00391 3.2-0.00113 0.939-0.00226 1.88-0.00342 2.84-0.102 2.7-0.333 5.28-0.631 7.96-0.767 8.35-0.621 16.7-0.596 25.1 0.00192 1.87 0.00338 3.75 0.00443 5.62 0.00315 4.02 0.00941 8.05 0.0181 12.1 0.0137 6.42 0.0194 12.8 0.0241 19.2 0.012 14.8 0.0338 29.7 0.0562 44.5 0.0204 13.5 0.0384 27 0.0482 40.5 0.00408 5.31 0.0102 10.6 0.0217 15.9 0.0487 22.6-0.0648 45.2-0.517 67.8-0.0293 1.52-0.0293 1.52-0.0592 3.06-0.214 10.8-0.523 21.6-1.16 32.3-0.675 11.5-0.383 22.9 0.162 34.4 0.474 10.1 0.613 20.2 0.625 30.2 0.0025 0.712 5e-3 1.42 0.00757 2.16 0.00587 2.03 0.00323 4.05 2.44e-4 6.08-0.00113 1.17-0.00226 2.34-0.00342 3.55-0.129 2.9-0.129 2.9-1.13 5.9-0.136 1.66-0.224 3.33-0.281 5-0.0561 1.45-0.0561 1.45-0.113 2.94-0.0348 1.01-0.0696 2.02-0.105 3.06-0.0689 2-0.142 4-0.219 6-0.0303 0.887-0.0606 1.77-0.0918 2.69-0.189 2.31-0.189 2.31-1.19 5.31-1.32 0.372-2.66 0.706-4 1-0.33 0.66-0.66 1.32-1 2v-3c-0.639 0.186-1.28 0.371-1.94 0.562-0.681 0.144-1.36 0.289-2.06 0.438-1.88-1.88-1.24-5.08-1.32-7.59-0.0209-0.679-0.0418-1.36-0.0634-2.06-0.0669-2.24-0.126-4.49-0.183-6.73-0.0308-1.16-0.0308-1.16-0.0622-2.34-0.142-5.43-0.264-10.9-0.375-16.3-0.0248-1.18-0.0496-2.35-0.0752-3.56-0.313-17.3 0.494-34.5 1.45-51.8 0.0716-1.36 0.0716-1.36 0.145-2.75 0.0898-1.7 0.185-3.4 0.287-5.1 0.0401-0.774 0.0802-1.55 0.122-2.35 0.0378-0.665 0.0755-1.33 0.114-2.01 0.00356-2.58 0.00356-2.58-0.54-5.8-0.715-5.63-0.632-11.2-0.611-16.9 8.35e-4 -1.84 8.35e-4 -1.84 0.00169-3.71 0.0025-3.38 0.00949-6.77 0.0184-10.1 0.00846-3.66 0.011-7.31 0.0143-11 0.00629-6.33 0.016-12.7 0.0279-19 0.017-9.16 0.0265-18.3 0.0339-27.5 0.0119-14.9 0.0269-29.8 0.0451-44.6 0.00109-0.89 0.00218-1.78 0.0033-2.7 0.0156-12.6 0.0342-25.3 0.054-37.9 0.00209-1.33 0.00209-1.33 0.00422-2.7 0.00209-1.33 0.00209-1.33 0.00422-2.69 0.0231-14.8 0.0384-29.6 0.0473-44.5 0.00585-9.14 0.0182-18.3 0.039-27.4 0.0137-6.26 0.0202-12.5 0.021-18.8 7.02e-4 -3.61 0.00466-7.22 0.0175-10.8 0.0138-3.92 0.012-7.84 0.00883-11.8 0.00651-1.13 0.013-2.27 0.0197-3.43-0.021-6.63-0.766-12.7-2.25-19.1-1.08-7.27-1.12-14.3-0.375-21.6 0.057-0.687 0.114-1.37 0.173-2.08 0.241-1.96 0.241-1.96 1.2-5.29 2.59-1.96 2.59-1.96 5-3z" fill="#A8ABAB"/>
<path transform="translate(790,963)" d="m0 0h2c0.928 7.28 1.03 14.4 0.625 21.7-0.0431 0.802-0.0862 1.6-0.131 2.43-0.362 5.75-0.362 5.75-1.49 6.88-0.447 13.9 0.841 27.8 2 41.6 0.083 1.01 0.166 2.03 0.251 3.07 0.123 1.41 0.123 1.41 0.249 2.84 0.0722 0.837 0.144 1.67 0.219 2.54 0.0863 1.93 0.0863 1.93 1.28 2.92 0.109 1.77 0.149 3.55 0.161 5.32 0.00961 1.14 0.0192 2.28 0.0291 3.45 0.00425 1.24 0.0085 2.49 0.0129 3.77 0.0057 1.28 0.0114 2.55 0.0173 3.87 0.0105 2.72 0.0164 5.43 0.0198 8.15 0.00543 3.45 0.0293 6.89 0.058 10.3 0.0234 3.32 0.0251 6.64 0.0299 9.95 0.0123 1.22 0.0247 2.44 0.0374 3.7-0.0182 7.13-0.931 13.4-2.69 20.3-1.12 5.27-1.05 10.5-0.969 15.8 0.00637 1.7 0.00637 1.7 0.0129 3.44 0.0166 3.58 0.0542 7.15 0.0926 10.7 0.0151 2.45 0.0288 4.89 0.041 7.34 0.0328 5.95 0.0828 11.9 0.146 17.8h2c-0.0722 1.06-0.144 2.12-0.219 3.21-0.0938 1.39-0.188 2.78-0.281 4.16-0.0477 0.699-0.0954 1.4-0.145 2.12-0.262 3.75-0.262 3.75-0.355 7.51h2c0.0925 4.44 0.105 8.78-0.5 13.2-0.437 3.33-0.584 6.46-0.5 9.81h2c2.53 3.17 3.28 6.09 3.94 10 0.597 3.43 0.891 4.79 3.12 7.56 2.8 3.53 2.75 7.04 2.94 11.4h2v11h-2v2h-2v2h-2c-0.227 0.639-0.454 1.28-0.688 1.94-1.31 2.06-1.31 2.06-3.88 2.69-0.804 0.124-1.61 0.247-2.44 0.375-0.33 0.66-0.66 1.32-1 2h-13v4c-1.32-0.33-2.64-0.66-4-1-0.33 1.65-0.66 3.3-1 5h-1c-0.0606-1.09-0.121-2.17-0.184-3.29-0.0845-1.45-0.169-2.89-0.254-4.34-0.0393-0.713-0.0786-1.43-0.119-2.16-0.246-4.13-0.678-8.14-1.44-12.2h-2c-0.673-1.6-1.34-3.21-2-4.81-0.557-1.34-0.557-1.34-1.12-2.71-0.875-2.48-0.875-2.48-0.875-5.48h-2c-0.33-1.65-0.66-3.3-1-5h-3c0.33 1.65 0.66 3.3 1 5h-2c-0.33-1.65-0.66-3.3-1-5-0.99-0.33-1.98-0.66-3-1-2.37-2.37-2.26-2.85-2.27-6.06-0.00258-0.797-0.00516-1.59-0.00781-2.41 0.0116-1.25 0.0116-1.25 0.0234-2.52-0.00773-0.833-0.0155-1.67-0.0234-2.52 0.00258-0.797 0.00516-1.59 0.00781-2.41 0.00226-0.731 0.00451-1.46 0.00684-2.21 0.259-1.85 0.259-1.85 2.26-3.85 2.69-0.27 5.29-0.0874 8 0 0.495-0.99 0.495-0.99 1-2h2v-2c1.65-0.33 3.3-0.66 5-1 0.33-2.31 0.66-4.62 1-7h2c0.027-1.46 0.0464-2.92 0.0625-4.38 0.0116-0.812 0.0232-1.62 0.0352-2.46 0.047-2.21 0.047-2.21-1.1-4.16 0.279-1.68 0.608-3.35 1-5h2c-0.138-4.13-0.287-8.25-0.438-12.4-0.0393-1.18-0.0786-2.35-0.119-3.56-0.0419-1.12-0.0838-2.24-0.127-3.4-0.0367-1.04-0.0733-2.07-0.111-3.14-0.047-2.52-0.047-2.52-1.21-4.52h2c0.886-10.9 1.11-21.1-0.527-32-1.1-8.04-0.447-16.3-0.0352-24.3 0.0393-0.867 0.0786-1.73 0.119-2.63 0.206-4.14 0.619-8 1.44-12.1 0.176-2.84 0.32-5.66 0.438-8.5 0.537-11 2.27-21.7 4.56-32.5h2c-0.0928-1.42-0.0928-1.42-0.188-2.88-0.0179-3.1 0.571-5.32 1.68-8.2 2.26-7.28 1.88-14.7 1.79-22.3-0.0314-2.55-0.041-5.09-0.0469-7.64-0.00916-1.63-0.0195-3.26-0.0312-4.88-0.00425-0.757-0.0085-1.51-0.0129-2.29-0.0465-3.43-0.192-6.55-1.19-9.84-0.477-5 0.787-9.04 2.34-13.7 0.795-2.36 0.795-2.36 0.656-5.27z" fill="#A8ABAB"/>
<path transform="translate(405,645)" d="m0 0h1v22h3c0.33 1.32 0.66 2.64 1 4v-11h1v7h3c0.504 2.1 1 4.21 1.5 6.31 0.278 1.17 0.557 2.34 0.844 3.55 0.656 3.14 0.656 3.14 0.656 6.14h2c0.871 5.61 1.64 10.7-1 16h-2c-0.227 3.54-0.428 7.08-0.625 10.6l-0.195 3.03c-0.398 7.37-0.398 7.37 1.82 14.3 0.485 0.417 0.971 0.834 1.47 1.26 6.28 7.14 4.93 21.6 4.78 30.5-0.00516 1.24-0.0103 2.47-0.0156 3.75-0.0586 6.89-0.383 13.7-1.23 20.5-1.65 0.33-3.3 0.66-5 1 0.0619 0.804 0.124 1.61 0.188 2.44-0.239 4.54-1.61 8.33-3.19 12.6h-3c-0.33-0.66-0.66-1.32-1-2-0.495 0.99-0.495 0.99-1 2h-2v26h2c0.33 2.97 0.66 5.94 1 9v-18c0.66 0.33 1.32 0.66 2 1v8h2c0.133 0.808 0.266 1.62 0.402 2.45 0.177 1.07 0.353 2.14 0.535 3.24 0.174 1.06 0.348 2.11 0.527 3.2 0.467 2.72 0.979 5.41 1.54 8.11 0.99 0.33 1.98 0.66 3 1 3.17 17.5 3.08 35.6 2.99 53.4-0.00304 0.683-0.00608 1.37-0.00922 2.07-0.0174 3.29-0.0504 6.57-0.104 9.86-0.0118 1.18-0.0235 2.36-0.0356 3.58-0.0253 1.55-0.0253 1.55-0.051 3.13 0.233 3.26 1.11 5.89 2.21 8.96 0.195 2.99 0.195 2.99 0.125 5.88-0.018 0.967-0.0361 1.93-0.0547 2.93-0.0232 0.724-0.0464 1.45-0.0703 2.2h-2c-0.144 0.949-0.289 1.9-0.438 2.88-0.562 3.12-0.562 3.12-1.56 5.12h-2v2h-2c-0.0752 1.23-0.0752 1.23-0.152 2.48-0.233 3.72-0.478 7.43-0.723 11.1-0.0786 1.29-0.157 2.57-0.238 3.89-0.0838 1.24-0.168 2.49-0.254 3.77-0.0733 1.14-0.147 2.28-0.222 3.46-0.417 3.3-1.25 6.14-2.41 9.25-0.598-0.186-1.2-0.371-1.81-0.562-2.35-0.658-2.35-0.658-5.19 0.562-1.9-3.22-2.25-5.58-2.25-9.3-0.0046-1.08-0.0092-2.16-0.0139-3.27 0.00514-1.19 0.0103-2.37 0.0156-3.59-0.00241-1.26-0.00483-2.52-0.00732-3.82-0.00642-3.5-3.39e-4 -7 0.00776-10.5 0.00657-3.77 0.00163-7.55-0.00188-11.3-0.00505-7.4 6.08e-4 -14.8 0.00985-22.2 0.0104-8.63 0.0103-17.3 0.00983-25.9-5.01e-4 -15.4 0.00867-30.8 0.0232-46.2 0.0141-14.9 0.0212-29.9 0.0205-44.8-4e-5 -0.917-7.99e-5 -1.83-1.21e-4 -2.78-4.04e-5 -0.916-8.07e-5 -1.83-1.22e-4 -2.77-6.92e-4 -17 0.00522-34 0.0142-51.1 3e-3 -6 0.00408-12 0.00453-18 6.87e-4 -7.33 0.00521-14.7 0.0143-22 0.00458-3.73 0.00768-7.47 0.00641-11.2-0.00405-15.1 0.0991-30.2 1.15-45.3z" fill="#A6A9A8"/>
<path transform="translate(1334,1035)" d="m0 0c3.29 5.35 5.6 9.68 6 16h2c2.38 4.73 2.48 9.31 2.69 14.5 0.0383 0.889 0.0767 1.78 0.116 2.69 0.369 10.1 0.406 19.5-3.8 28.8h-2c-0.33 2.97-0.66 5.94-1 9-1.48 0.495-1.48 0.495-3 1v27h3v2c0.66 0.33 1.32 0.66 2 1 0.598 2.41 0.598 2.41 1.06 5.5 0.165 1.09 0.33 2.18 0.5 3.31 0.557 4.06 1.04 8.11 1.44 12.2 0.104 0.897 0.209 1.79 0.316 2.72 0.62 5.71 0.521 10.6-0.316 16.3-0.0235 1.35-0.0233 2.71 0 4.06 0 3.81-0.376 7.19-1 10.9h-2c-0.33 0.66-0.66 1.32-1 2-0.495-1.98-0.495-1.98-1-4h-4c-0.99-3.63-1.98-7.26-3-11h-6c0.33-1.65 0.66-3.3 1-5 0.99-0.33 1.98-0.66 3-1v-2c-1.32-0.33-2.64-0.66-4-1 1.98-0.99 1.98-0.99 4-2v-2h-4v-2h-2v-2h-5c-0.672-1.94-1.34-3.87-2-5.81-0.371-1.08-0.743-2.16-1.12-3.27-0.875-2.92-0.875-2.92-0.875-5.92-0.66-0.33-1.32-0.66-2-1-0.167-4.92-0.248-8.5 2-13 0.33 1.32 0.66 2.64 1 4 1.48-0.495 1.48-0.495 3-1 0.961-2.88 1.12-4.68 1.1-7.67-0.00322-0.893-0.00645-1.79-0.00977-2.71-0.00838-0.929-0.0168-1.86-0.0254-2.81-0.00451-0.94-0.00902-1.88-0.0137-2.85-0.0118-2.32-0.0282-4.64-0.0488-6.96h5v-4c-0.99-0.33-1.98-0.66-3-1h3v-4h-7c-1.81-9.61-1.22-19.3 0-29 2.95 2.95 3.09 5.96 4 10 0.0804-1.06 0.161-2.11 0.244-3.2 0.3-3.9 0.612-7.8 0.928-11.7 0.135-1.69 0.267-3.38 0.396-5.07 0.185-2.43 0.382-4.85 0.581-7.28 0.0553-0.76 0.111-1.52 0.168-2.3 0.156-1.82 0.411-3.64 0.684-5.45 0.66-0.33 1.32-0.66 2-1 0.358-3.07 0.444-6.12 0.559-9.21 0.146-0.919 0.291-1.84 0.441-2.79 3-2 3-2 7-2z" fill="#A8ABA9"/>
<path transform="translate(1330,829)" d="m0 0c5.51-0.367 5.51-0.367 7.75 1.31 3.31 4.47 4.55 8.58 6 13.9 0.246 0.826 0.492 1.65 0.746 2.5 2.22 8.16 0.729 13.9-3.5 21.3-0.66 0.66-1.32 1.32-2 2-0.464 2.89-0.464 2.89-0.625 6.12-0.0748 1.1-0.15 2.19-0.227 3.32-0.049 0.843-0.098 1.69-0.148 2.55h-4v37h2v4c1.48 0.495 1.48 0.495 3 1v3h2c-0.0206 0.969-0.0412 1.94-0.0625 2.94-0.00767 3.76 0.382 7.42 0.844 11.1 0.219 1.92 0.219 1.92 0.219 3.92 0.035 1.39 0.0702 2.78 0.105 4.18 0.028 1.71 0.0553 3.42 0.082 5.14 0.0251 0.855 0.0503 1.71 0.0762 2.59 0.0584 5.02-0.271 7.9-3.26 12.1-2.84 7.15-4.4 13.7-4.07 21.4 0.073 2.56-0.119 4.94-0.426 7.48-0.437 3.84-0.537 7.57-0.5 11.4 0.0629 6.6-0.397 13.1-1 19.7-1.98 0.33-3.96 0.66-6 1v-10h3v-23h-9c-0.66-0.66-1.32-1.32-2-2 1.32-0.33 2.64-0.66 4-1-0.186-1.11-0.371-2.23-0.562-3.38-0.438-3.62-0.438-3.62 0.562-5.62h4v-25h-3c-0.125-5.75-0.125-5.75 1-8h2c-0.00524-0.958-0.0105-1.92-0.0159-2.9-0.0182-3.59-0.0296-7.17-0.0391-10.8-5e-3 -1.55-0.0118-3.09-0.0205-4.64-0.0123-2.23-0.0178-4.47-0.0222-6.7-0.00516-0.681-0.0103-1.36-0.0156-2.06-3.99e-4 -3.49 0.198-6.86 0.682-10.3 0.748-3.45 0.748-3.45-0.569-5.62h-4c-0.913-4.97-0.913-9.03 0-14h2c0.33 3.3 0.66 6.6 1 10v-10c-0.66-0.33-1.32-0.66-2-1 0.33-0.66 0.66-1.32 1-2 0.135-2.08 0.135-2.08-0.938-4.12-1.35-3.65-1.67-7-2.06-10.9h5c-0.495-1.49-0.495-1.49-1-3-0.0254-3.56 0.0268-7.11 0.127-10.7 0.0641-4.31-0.259-7.36-2.13-11.3-0.424-5.19-0.424-5.19 0.977-7.86 1.21-2.53 1.43-4.61 1.65-7.39 0.112-1.34 0.112-1.34 0.227-2.7 0.049-0.675 0.098-1.35 0.148-2.05 0.99-0.33 1.98-0.66 3-1v-2z" fill="#A8AAA8"/>
<path transform="translate(266,543)" d="m0 0h2c3.07 5.87 4.13 9.84 4.13 16.5 0.00136 0.664 0.00273 1.33 0.00414 2.01 0.00207 2.26-0.00444 4.52-0.0119 6.79-0.00122 0.793-0.00244 1.59-0.00369 2.4-0.03 17.1-0.273 34.3-0.527 51.4-0.031 2.11-0.0609 4.21-0.0906 6.32-0.199 14-0.468 27.9-1.3 41.9-0.247 4.49-0.328 8.95-0.27 13.4 0.00451 0.725 0.00902 1.45 0.0137 2.2 0.0113 1.71 0.0292 3.41 0.0488 5.12h-6c-0.33-8.58-0.66-17.2-1-26-0.495 0.99-0.495 0.99-1 2h-5l-1 2v-2c-1.49 0.495-1.49 0.495-3 1 0.33 1.32 0.66 2.64 1 4h-2c-1.77-6.98-2.46-13.6-2.75-20.8-0.0554-1.02-0.111-2.05-0.168-3.1-0.0638-1.48-0.0638-1.48-0.129-2.98-0.0396-0.885-0.0793-1.77-0.12-2.68 0.182-2.64 0.894-4.14 2.17-6.42 0.614-5.15 0.079-10.1-1.06-15.1-1.28-5.82-1.13-10.4 1.5-15.9 0.516-0.66 1.03-1.32 1.56-2h2c0.33-0.66 0.66-1.32 1-2 3.04-1.15 4.93-0.857 8 0-0.141-1.79-0.288-3.58-0.438-5.38-0.0812-0.998-0.162-2-0.246-3.02-0.166-2.58-0.166-2.58-1.32-4.6-0.99 1.32-1.98 2.64-3 4-3.94-3.94-5.68-6.64-6.01-12.2 0.0728-17.2 0.0728-17.2 3.01-21.8 2.99-2.79 3.71-3 8-3 0.544-3.06 1-5.89 1-9 0.33-0.99 0.66-1.98 1-3z" fill="#A8AAA8"/>
<path transform="translate(453,718)" d="m0 0h1c0.959 68.4 1.15 137 0 205h-2c0.00524 0.563 0.0105 1.13 0.0159 1.71 0.0212 2.64 0.0339 5.28 0.0466 7.92 0.00838 0.884 0.0168 1.77 0.0254 2.68 0.0184 5.16-0.176 10.2-0.592 15.4-0.663 8.6-0.56 17.2-0.476 25.8 0.0699 7.85 0.02 15.7-0.396 23.5-0.0309 0.69-0.0617 1.38-0.0935 2.09-0.101 1.65-0.306 3.29-0.531 4.93-0.66 0.33-1.32 0.66-2 1-0.169-4.31-0.335-8.62-0.5-12.9-0.0477-1.21-0.0954-2.42-0.145-3.67-0.386-10.2-0.386-10.2-0.324-15.2 0.0377-4.45-0.471-8.77-1.03-13.2 0.00524 0.764 0.0105 1.53 0.0159 2.32 0.202 34 0.202 34-1.02 41.7-0.66 0.33-1.32 0.66-2 1-0.0251-0.697-0.0501-1.39-0.0759-2.11-0.447-12.4-0.9-24.8-1.42-37.2-0.0397-0.944-0.0794-1.89-0.12-2.86-0.232-5.25-0.568-10.5-1-15.7-0.509-6.74-0.0118-12.7 1.66-19.2 1.18-5.29 1.2-10.4 1.13-15.8-0.0052-1.03-0.0104-2.05-0.0158-3.11-0.0177-3.26-0.0487-6.52-0.0819-9.78-0.108-12.4-0.202-24.7 0.371-37.1 0.0395-0.871 0.079-1.74 0.12-2.64 0.193-3.67 0.549-6.97 1.45-10.5 0.0587-2.12 0.0612-4.25 0.0273-6.38-0.0122-1.23-0.0245-2.46-0.0371-3.73-0.0352-2.59-0.0742-5.19-0.117-7.78-0.011-1.23-0.0219-2.46-0.0332-3.73-0.0168-1.13-0.0337-2.25-0.051-3.41 0.207-2.9 0.701-4.52 2.21-6.96 0.33 0.66 0.66 1.32 1 2 0.0619-1.26 0.124-2.52 0.188-3.81 0.0348-0.708 0.0696-1.42 0.105-2.14-0.0779-2.14-0.0779-2.14-1.77-3.31-2.14-2.44-1.98-4.25-2.1-7.47-0.0445-1.13-0.0889-2.26-0.135-3.43-0.0316-1.18-0.0632-2.37-0.0957-3.59-0.0509-1.17-0.102-2.34-0.154-3.54-0.201-6-0.17-11.1 1.97-16.7 0.66 0.66 1.32 1.32 2 2 0.0553-0.777 0.111-1.55 0.168-2.35 0.252-3.51 0.511-7.01 0.77-10.5 0.087-1.22 0.174-2.45 0.264-3.71 0.087-1.17 0.174-2.33 0.264-3.54 0.0786-1.08 0.157-2.16 0.238-3.27 0.297-2.61 0.297-2.61 1.3-4.61h2c-0.33-2.64-0.66-5.28-1-8h-2c-1.21-5.23-0.756-9.77 0-15 0.99-0.33 1.98-0.66 3-1-0.66-1.65-1.32-3.3-2-5h2v-5z" fill="#A6A9A8"/>
<path transform="translate(1141,1310)" d="m0 0c1.69 0.0896 3.38 0.246 5.06 0.438 1.38 0.153 1.38 0.153 2.79 0.309 0.71 0.0838 1.42 0.168 2.15 0.254 0.121 1.04 0.121 1.04 0.244 2.1 0.368 3.12 0.749 6.23 1.13 9.34 0.126 1.09 0.253 2.18 0.383 3.3 0.129 1.03 0.258 2.07 0.391 3.13 0.115 0.958 0.23 1.92 0.349 2.9 0.166 0.734 0.332 1.47 0.502 2.22 0.66 0.33 1.32 0.66 2 1-0.00524 0.69-0.0105 1.38-0.0159 2.09-0.0209 3.16-0.0338 6.31-0.0466 9.47-0.00838 1.09-0.0168 2.17-0.0254 3.29-0.0167 5.48 0.00777 10.8 1.09 16.1l1 1c0.541 2.96 0.965 5.94 1.4 8.92 0.489 3.07 0.489 3.07 1.72 5.76 1.24 3.28 0.194 5.18-1.12 8.32h-2v2c-6.22 2.55-11.8 2.49-18.3 1.5-3.98-2.22-5.39-5.2-6.69-9.5-0.137-2.09-0.137-2.09-0.0625-4.12 0.386-3.82 0.386-3.82-1.44-6.56-2.03-4.47-1.66-8.32-1.54-13.2 0.0286-2.56-0.101-4.82-0.527-7.33-0.438-2.81-0.438-2.81 0.562-4.81h2c1.21-2.33 2.17-4.5 3-7h2c0.33-1.32 0.66-2.64 1-4-0.66-0.33-1.32-0.66-2-1 0.66-1.32 1.32-2.64 2-4h-2c-1.19-3.57-1-5 0.312-8.62 1.69-3.38 1.69-3.38 3.69-6.38 0.04-2 0.0435-4 0-6l1-1z" fill="#A7AAAB"/>
<path transform="translate(601 1e3)" d="m0 0h13v5h3v7h6c1.2 4.87 1.34 9.76 1.56 14.8 0.0432 0.856 0.0864 1.71 0.131 2.59 0.35 7.33 0.627 14.7-0.131 22-0.409 4.12-0.785 8.25-1.12 12.4-0.0838 1.01-0.168 2.03-0.254 3.07-0.0909 1.11-0.0909 1.11-0.184 2.24h-1v-5c-0.804 0.495-0.804 0.495-1.62 1-2.91 1.23-5.24 1.14-8.38 1v2h2v6h-2v2h-2v2h-6v-6h2v-14h-7c-0.33-12.9-0.66-25.7-1-39h2c0.33-6.27 0.66-12.5 1-19z" fill="#A8ABAB"/>
<path transform="translate(580,1091)" d="m0 0h1c0.33 2.31 0.66 4.62 1 7h1v6c0.99 0.33 1.98 0.66 3 1 0.33-2.31 0.66-4.62 1-7h1v6h2c2.14 3.48 2.21 6.21 2.12 10.2-0.018 1.08-0.0361 2.16-0.0547 3.27-0.0232 0.82-0.0464 1.64-0.0703 2.48h-2v9c0.66 0.33 1.32 0.66 2 1 0.0579 3.46 0.0936 6.92 0.125 10.4 0.0251 1.48 0.0251 1.48 0.0508 2.98 0.00645 0.941 0.0129 1.88 0.0195 2.85 0.0105 0.869 0.0209 1.74 0.0317 2.63-0.227 2.15-0.227 2.15-2.23 4.15-1.07 5.66-0.912 10.3 0 16 1.32 0.33 2.64 0.66 4 1v3h2c2.05 2.79 2.96 4.73 3.44 8.19 0.186 0.928 0.371 1.86 0.562 2.81 1.83 1.33 1.83 1.33 4 2 1.49 0.99 1.49 0.99 3 2v2h2c-0.186 0.578-0.371 1.15-0.562 1.75-0.617 2.24-0.617 2.24 0.188 4.31 0.124 0.639 0.247 1.28 0.375 1.94-0.979 1.02-1.98 2.02-3 3v4c-6.27 0.739-10.8 0.775-15.9-3.19-5.9-5.26-10.2-10.8-11.3-18.8-0.0989-2.12-0.11-4.21-0.0832-6.33-0.00204-0.793-0.00409-1.59-0.0062-2.4-0.00299-2.6 0.0154-5.2 0.0345-7.79 0.00306-1.82 0.00493-3.65 0.00568-5.47 0.00459-3.81 0.019-7.63 0.0412-11.4 0.0282-4.86 0.0392-9.72 0.0437-14.6 0.00519-4.67 0.0197-9.34 0.0344-14 0.00188-0.878 0.00376-1.76 0.0057-2.66 0.0253-9.14 0.0918-18.2 1.2-27.3z" fill="#A6A9A8"/>
<path transform="translate(443,865)" d="m0 0h1c0.0701 7.71 0.123 15.4 0.155 23.1 0.0155 3.58 0.0365 7.16 0.0709 10.7 0.033 3.47 0.0506 6.94 0.0583 10.4 0.00809 1.94 0.0314 3.88 0.0553 5.82 0.00141 7.61-0.856 14.5-2.67 21.9-1.71 7.65-0.431 15.5 0.33 23.2 2.18 23.5 2.18 23.5 0 27.8-1.89-0.531-1.89-0.531-4-2-0.765-2.58-1.29-4.87-1.69-7.5-0.686-4.89-0.686-4.89-2.31-9.5-0.0868-2.7-0.116-5.37-0.0977-8.07 0.00141-0.796 0.00283-1.59 0.00429-2.41 0.00561-2.55 0.0182-5.09 0.0309-7.64 0.00501-1.73 0.00958-3.45 0.0137-5.18 0.011-4.23 0.0283-8.47 0.0488-12.7h-4c-0.33 0.99-0.66 1.98-1 3v-3h-4c-0.0735-0.87-0.0735-0.87-0.148-1.76-0.0748-0.781-0.15-1.56-0.227-2.37-0.0696-0.766-0.139-1.53-0.211-2.32-0.335-2.62-0.335-2.62-1.43-5.2-1.15-3.93-1.24-7.55-1.18-11.6 0.00283-0.768 0.00566-1.54 0.00858-2.33 0.0111-2.43 0.0362-4.87 0.0617-7.3 0.01-1.66 0.0192-3.32 0.0273-4.98 0.022-4.05 0.0564-8.1 0.0977-12.1l1 2h13v2h6v-8h-5c0.33-3.3 0.66-6.6 1-10h4c0.33-1.32 0.66-2.64 1-4z" fill="#A9ABA9"/>
<path transform="translate(763,499)" d="m0 0h10c2.84 5.55 3.38 9.8 3 16 0.66 0.33 1.32 0.66 2 1-0.33 0.33-0.66 0.66-1 1-0.235 2.35-0.414 4.71-0.562 7.06-0.0838 1.29-0.168 2.58-0.254 3.91-0.0909 1.5-0.0909 1.5-0.184 3.03h2v2h2v2c1.98 0.33 3.96 0.66 6 1v3h2v2h8l1-2c1.04 3.12 1 4.71 0.695 7.93-0.133 1.44-0.133 1.44-0.27 2.91-0.0993 1-0.199 2-0.301 3.04-0.137 1.49-0.137 1.49-0.277 3.01-0.422 4.44-0.917 8.75-1.85 13.1h-2v3h-2c-0.33 4.62-0.66 9.24-1 14h-1v-8c-1.49-0.495-1.49-0.495-3-1-0.688-2.06-0.688-2.06-1-4h-3c-2.15-3.23-2.2-4.28-2-8-3.47-0.495-3.47-0.495-7-1v-10c-1.65-0.33-3.3-0.66-5-1v-2c-0.99-0.33-1.98-0.66-3-1v-6h2v2h2c0.33 0.33 0.66 0.66 1 1 0.87-5.27 1.18-10.4 1.19-15.7 0.0122-0.746 0.0245-1.49 0.0371-2.26 0.0103-3.84-0.0566-6.81-2.22-10.1h-2c-0.33 1.32-0.66 2.64-1 4-0.464-1.18-0.464-1.18-0.938-2.38-0.991-2.55-0.991-2.55-2.06-4.62-2.02-0.652-2.02-0.652-4-1 0.99-0.33 1.98-0.66 3-1-0.33-0.99-0.66-1.98-1-3h-2v-5h4v-2h-4v-3h4v-2z" fill="#A8ABA9"/>
<path transform="translate(1184,222)" d="m0 0c1.24 3.72 1.14 7.16 1.13 11 0.00259 1.23 0.00259 1.23 0.00524 2.49 0.00437 2.75 0.0014 5.49-0.00182 8.24 0.00101 1.94 0.00235 3.88 4e-3 5.82 0.0027 5.19-0.00176 10.4-0.00824 15.6-0.00356 3.2-0.00519 6.4-0.00626 9.6-0.0134 32.1-0.254 64.2-1.12 96.2h-1c-0.0198-0.742-0.0396-1.48-0.0601-2.25-0.0952-3.36-0.205-6.71-0.315-10.1-0.0464-1.75-0.0464-1.75-0.0938-3.54-0.0387-1.12-0.0773-2.24-0.117-3.39-0.0314-1.03-0.0628-2.06-0.0952-3.13-0.146-2.86-0.146-2.86-2.32-5.64h-3c-1.32-0.33-2.64-0.66-4-1-1.32 6.6-2.64 13.2-4 20h-1c-0.0271-2.23-0.0465-4.46-0.0625-6.69-0.0174-1.86-0.0174-1.86-0.0352-3.76 0.0977-3.55 0.0977-3.55 0.604-5.95 0.511-2.7 0.561-5.07 0.486-7.81-0.028-1.49-0.028-1.49-0.0566-3-0.02-1.04-0.04-2.09-0.0605-3.16-0.111-9.63 0.62-18.3 3.12-27.6h3c-0.184-0.732-0.369-1.46-0.559-2.22-0.457-2.88-0.234-4.5 0.496-7.28 0.932-4.13 1.15-7.89 1.06-12.1-0.0987-5.21 0.444-9.41 2-14.4h3c0.147-11-0.293-22-1-33h-2c-0.33 1.32-0.66 2.64-1 4-0.33-0.66-0.66-1.32-1-2 0.33-0.66 0.66-1.32 1-2h-4v-7h9v-4c-1.32-0.33-2.64-0.66-4-1 2.08-0.553 3.84-1 6-1z" fill="#A8AAA8"/>
<path transform="translate(438,592)" d="m0 0c1.5 1.38 1.5 1.38 3 3v2h2c0.99 1.49 0.99 1.49 2 3 0.66-0.66 1.32-1.32 2-2 2 2 1.41 5.82 1.56 8.56 0.0432 0.711 0.0864 1.42 0.131 2.15 0.106 1.76 0.207 3.52 0.307 5.28h2v2h2v6h-2v5h-1c-0.488-2.02-0.977-4.04-1.46-6.05-0.484-2-0.484-2-1.54-3.95h-2c0.33 1.32 0.66 2.64 1 4h2v6h-2c-0.049 0.871-0.098 1.74-0.148 2.64-0.496 7.9-1.38 15.6-2.85 23.4h-4v5c-0.495-0.99-0.495-0.99-1-2h-3c-0.495-2.48-0.495-2.48-1-5h-6c-0.708-2.53-1.13-4.95-1.5-7.56-0.393-3.41-0.393-3.41-1.5-6.44v-4c-2.97-0.33-5.94-0.66-9-1v-5c4.95-0.495 4.95-0.495 10-1-0.186-0.742-0.371-1.49-0.562-2.25-0.43-2.7-0.289-4.2 0.562-6.75h2v-2h4c0.33-4.95 0.66-9.9 1-15-1.32-0.33-2.64-0.66-4-1 3.46-0.495 3.46-0.495 7-1 0.66-1.98 1.32-3.96 2-6z" fill="#A8ABA9"/>
<path transform="translate(1356,136)" d="m0 0c3.11 2.86 5.13 5.66 7.12 9.38 0.746 1.37 0.746 1.37 1.51 2.77 2.95 6.14 3.65 11.2 3.61 17.9 0.00171 0.899 0.00342 1.8 0.00518 2.73 0.00329 3.01-0.0077 6.02-0.0186 9.02-5.64e-4 2.16-2.47e-4 4.32 8.85e-4 6.48 5.74e-4 5.86-0.0112 11.7-0.0251 17.6-0.0125 6.12-0.0137 12.2-0.0161 18.4-0.00622 11.6-0.0226 23.2-0.0427 34.8-0.0224 13.2-0.0334 26.4-0.0434 39.6-0.0209 27.1-0.0561 54.3-0.101 81.4h-3c-0.33-18.5-0.66-37-1-56-0.99-0.33-1.98-0.66-3-1-0.495 0.99-0.495 0.99-1 2v-24h-2c-0.495-5.94-0.495-5.94-1-12h1c0.495 2.48 0.495 2.48 1 5-0.0838-0.771-0.168-1.54-0.254-2.34-0.102-1-0.204-2.01-0.309-3.04-0.104-0.998-0.209-2-0.316-3.02-0.121-2.6-0.121-2.6 0.879-4.6h3c-0.0116-0.699-0.0232-1.4-0.0352-2.12-0.00902-0.91-0.018-1.82-0.0273-2.76-0.0116-0.905-0.0232-1.81-0.0352-2.74 0.0977-2.38 0.0977-2.38 1.1-4.38 0.0745-2.4 0.0914-4.77 0.0625-7.17-0.00568-1.07-0.00568-1.07-0.0115-2.16-0.0163-3.05-0.0443-6.1-0.0715-9.15-0.0182-2.23-0.0302-4.46-0.042-6.69-0.0083-0.679-0.0166-1.36-0.0251-2.06-0.0221-4.38 0.378-8.47 1.09-12.8h-2v-8h-2c-0.33 1.65-0.66 3.3-1 5-1.38-3.83-0.585-7.05 0-11-0.33-0.66-0.66-1.32-1-2h2v-15h1c0.366-4.37 0.716-8.75 1.06-13.1 0.104-1.24 0.208-2.47 0.314-3.75 0.0935-1.2 0.187-2.4 0.283-3.63 0.134-1.65 0.134-1.65 0.27-3.33 0.0708-3.19-0.302-6.03-0.93-9.16 0.66-0.33 1.32-0.66 2-1v-10h-2c-0.433-1.07-0.866-2.15-1.31-3.25-0.974-2.3-1.86-3.98-3.38-6-1.31-1.75-1.31-1.75-1.31-4.75z" fill="#A8AAA8"/>
<path transform="translate(1348,128)" d="m0 0v2c-0.99-0.165-1.98-0.33-3-0.5-7.22-1.24-7.22-1.24-13.9 0.75-1.2 1.86-2.22 3.73-3.12 5.75h-2c-0.495 1.49-0.495 1.49-1 3h-3v2c-0.652 0.268-1.3 0.536-1.98 0.812-5.86 2.63-9.37 5.1-12.9 10.5-1.16 1.67-1.16 1.67-3.16 2.67-0.652 2.02-0.652 2.02-1 4h-3c0.33-1.65 0.66-3.3 1-5-2.51 1.26-2.87 2.5-4 5-0.33-1.32-0.66-2.64-1-4-0.949-0.103-1.9-0.206-2.88-0.312-3.12-0.688-3.12-0.688-5.12-3.69-0.258-2.69-0.089-5.29 0-8h2v-2c-0.99 0.33-1.98 0.66-3 1 4.04-9.55 12.9-15.2 22-19.4 14.6-5.4 26.1-2.29 39 5.4z" fill="#A6A9A8"/>
<path transform="translate(440 468)" d="m0 0c1.6 1.27 1.6 1.27 2.39 3.28 0.211 1.98 0.211 1.98-0.789 3.98h2v2c0.66 0.33 1.32 0.66 2 1-0.66 1.32-1.32 2.64-2 4 0.66 0.33 1.32 0.66 2 1-0.603 0.17-1.21 0.34-1.83 0.516-1.2 0.364-1.2 0.364-2.42 0.734-1.18 0.348-1.18 0.348-2.39 0.703-2.48 0.926-2.48 0.926-4.29 3.02-2.49 2.45-4.56 3.17-7.88 4.21-1.06 0.335-2.11 0.67-3.2 1.02-2.42 0.646-4.57 1.04-7.05 1.23-3.16 0.248-3.16 0.248-4.69 3.12-0.413 0.804-0.825 1.61-1.25 2.44h-3c-0.66 1.98-1.32 3.96-2 6h-1c-0.782-4.89-1.19-9.6-1.25-14.6-0.0258-1.26-0.0516-2.52-0.0781-3.82 0.587-6.47 3.68-10.6 8.22-14.9 8.73-6.95 18.2-9.94 28.5-4.94z" fill="#A6A9A8"/>
<path transform="translate(452,923)" d="m0 0h2c0.0251 1.09 0.0501 2.18 0.0759 3.3 0.0952 4.09 0.195 8.19 0.296 12.3 0.0429 1.76 0.0846 3.52 0.125 5.28 0.0587 2.55 0.122 5.1 0.186 7.66 0.0167 0.769 0.0334 1.54 0.0506 2.33 0.109 4.17 0.366 8.28 0.779 12.4 0.804 9.25 0.609 18.5 0.584 27.8-0.00187 2.02-0.00329 4.05-0.00429 6.07-0.00379 5.29-0.0136 10.6-0.0247 15.9-0.0103 5.41-0.0148 10.8-0.0198 16.2-0.0107 10.6-0.0277 21.2-0.0488 31.8h-1c-0.0146-0.656-0.0292-1.31-0.0442-1.99-0.0743-2.96-0.171-5.92-0.268-8.89-0.0226-1.03-0.0451-2.07-0.0684-3.13-0.0532-1.48-0.0532-1.48-0.107-2.99-0.0262-0.911-0.0524-1.82-0.0793-2.76-0.143-0.741-0.285-1.48-0.432-2.25-0.99-0.66-1.98-1.32-3-2-0.99 0.99-0.99 0.99-2 2v-3c-1.32-0.33-2.64-0.66-4-1-1.36-15.4-1.08-30.5-0.356-45.9 0.34-7.6 0.433-15.2 0.319-22.8-0.0432-3.93 0.0525-7.49 1.04-11.3h1c0.73 16.3 1.39 32.7 2 49 0.607-11.9 1.06-23.9 0.938-35.8-0.147-16.1 1.02-32.1 2.06-48.2z" fill="#A8AAA9"/>
<path transform="translate(801 332)" d="m0 0c5.85 3.78 10.9 7.65 13.2 14.4h-3c-0.495-1.98-0.495-1.98-1-4h-2v-2l-2-1-1-1c-2.47 1.15-4.05 2.05-6 4-4.54 1.45-9.23 2.31-14 2-0.33 0.99-0.66 1.98-1 3-1.94 0.75-1.94 0.75-4 1l-2-1c-0.33 0.33-0.66 0.66-1 1v1h11v3c-0.722 0.124-1.44 0.248-2.19 0.375-2.77 0.616-5.19 1.56-7.81 2.62h-2v2c-0.699-0.0348-1.4-0.0696-2.12-0.105-0.91-0.0271-1.82-0.0541-2.76-0.082-0.905-0.0348-1.81-0.0696-2.74-0.105-0.786 0.0967-1.57 0.193-2.38 0.293-0.66 0.99-1.32 1.98-2 3-3.62 0.188-3.62 0.188-7 0v-2h2v-3c-2.33 0.959-2.33 0.959-4 4-1.19-3.56-0.486-4.86 1.05-8.17 3.53-6.78 7.83-12.5 14.3-16.5 0.915-0.581 1.83-1.16 2.77-1.76 8.68-4.72 18.8-5.53 27.7-0.953z" fill="#A8AAA9"/>
<path transform="translate(983,262)" d="m0 0c4 2.83 7.42 5.27 9 10l-2 1c-0.536-0.598-1.07-1.2-1.62-1.81-3.36-3.1-6.39-5.19-11.1-5.19-3.07 1.33-3.76 3.12-5.31 6h-2c-0.33 0.99-0.66 1.98-1 3h-2v2c-0.969 0.289-1.94 0.577-2.94 0.875-3.17 0.767-3.17 0.767-4.06 3.12-2.07 0.414-2.07 0.414-4.56 0.625-0.826 0.0748-1.65 0.15-2.5 0.227-0.957 0.0735-0.957 0.0735-1.93 0.148 0-3 0-3 1.25-4.56 1.82-1.5 3.6-2.47 5.75-3.44-0.33-0.99-0.66-1.98-1-3-3.3 0.66-6.6 1.32-10 2v13c-1.65 0.33-3.3 0.66-5 1-1.07 1.97-2.07 3.97-3 6-1.49 0.495-1.49 0.495-3 1 0.33-1.65 0.66-3.3 1-5-1.16 1.1-1.16 1.1-2.44 3.06-0.516 0.639-1.03 1.28-1.56 1.94h-2v6h-1c-1.42-8.14-0.888-13.7 3-21 0.402-0.773 0.804-1.55 1.22-2.34 5.1-8.66 13.8-14.7 23.2-18 8.93-2.15 17.5-0.885 25.6 3.38z" fill="#A8AAA8"/>
<path transform="translate(451,652)" d="m0 0h2c0.291 6.02 0.576 12 0.854 18.1 0.0953 2.04 0.192 4.08 0.291 6.12 0.675 13.9 0.985 27.8 0.854 41.8h-2v2.38 7.62c-0.99 0.495-0.99 0.495-2 1-0.471 1.92-0.471 1.92-0.625 4.19-0.0735 0.807-0.147 1.61-0.223 2.45-0.18 2.8-0.224 5.57-0.152 8.37h2c1.35 2.71 1.07 5.01 1 8h-2c-0.33 1.32-0.66 2.64-1 4 0.99 0.33 1.98 0.66 3 1h-3c0.0116 0.883 0.0232 1.77 0.0352 2.68 0.0565 7.51-0.182 14.9-1.04 22.3-2.93-2.9-4.28-4.95-4.36-9.03 0.0356-1.49 0.0921-2.98 0.168-4.47 0.0527-1.49 0.101-2.98 0.145-4.47 0.0214-0.699 0.0429-1.4 0.0649-2.12-0.0273-2.38-0.536-4.59-1.02-6.91 0.33-0.949 0.66-1.9 1-2.88 1.22-3.8 0.569-6.2 0-10.1 0.0886-2.06 0.243-4.11 0.449-6.16 0.571-7.41 0.586-14.7 0.508-22.2-0.0103-1.21-0.0206-2.42-0.0313-3.67-0.0449-5.06-0.0939-10.1-0.173-15.2-0.417-28.2-0.417-28.2 4.25-41.8 0.33-0.33 0.66-0.66 1-1z" fill="#A8AAA8"/>
<path transform="translate(420,783)" d="m0 0c1.06 1.81 1.06 1.81 2 4-0.33 0.99-0.66 1.98-1 3h4v-7c2.32 3.59 1.96 5.82 1.2 9.95-1.55 9.6-1.89 19.2-2.32 28.9-0.0866 1.86-0.174 3.73-0.262 5.59-0.211 4.51-0.415 9.02-0.613 13.5-2.98-3.61-3.55-6.33-4-11v12h-2c-2.59-5.94-3.4-10.5-3-17h-2c-0.33-2.64-0.66-5.28-1-8v20c-2.14-3.2-2.23-4.02-2.12-7.69 0.018-0.808 0.0361-1.62 0.0547-2.45 0.0348-0.922 0.0348-0.922 0.0703-1.86h-2c-1.34-8.53-1.98-17.5 0-26h2c0.33-2.64 0.66-5.28 1-8h1v8h3c0.124-1.18 0.248-2.35 0.375-3.56 0.513-4.01 1.23-7.64 2.62-11.4 0.99-0.33 1.98-0.66 3-1z" fill="#A8AAA9"/>
<path transform="translate(1141,1310)" d="m0 0c1.69 0.0896 3.38 0.246 5.06 0.438 1.38 0.153 1.38 0.153 2.79 0.309 0.71 0.0838 1.42 0.168 2.15 0.254 0.121 1.04 0.121 1.04 0.244 2.1 0.368 3.12 0.749 6.23 1.13 9.34 0.126 1.09 0.253 2.18 0.383 3.3 0.129 1.03 0.258 2.07 0.391 3.13 0.115 0.958 0.23 1.92 0.349 2.9 0.166 0.734 0.332 1.47 0.502 2.22 0.66 0.33 1.32 0.66 2 1v22h-3v-3h-2c-0.33-0.66-0.66-1.32-1-2-1.9-0.465-1.9-0.465-4.06-0.625-1.95-0.186-1.95-0.186-3.94-0.375v-2c-1.02 0.247-1.02 0.247-2.06 0.5-3.35 0.571-6.54 0.567-9.94 0.5v-2h2c1.21-2.33 2.17-4.5 3-7h2c0.33-1.32 0.66-2.64 1-4-0.66-0.33-1.32-0.66-2-1 0.66-1.32 1.32-2.64 2-4h-2c-1.19-3.57-1-5 0.312-8.62 1.69-3.38 1.69-3.38 3.69-6.38 0.04-2 0.0435-4 0-6l1-1z" fill="#A8AAA9"/>
<path transform="translate(755,1226)" d="m0 0c3.25 2.83 4.52 4.69 5 9 0.33-1.65 0.66-3.3 1-5h3c0.33 1.65 0.66 3.3 1 5h2c0.671 1.79 1.34 3.58 2 5.38 0.557 1.5 0.557 1.5 1.12 3.02 0.875 2.6 0.875 2.6 0.875 4.6h2c2.97 7.53 3.55 15.1 2 23-1.49-0.495-1.49-0.495-3-1l-1 2c-8.51-6.31-13.9-11.6-17-22-0.465-4.04-0.429-8-0.312-12.1 0.00967-1.04 0.0193-2.09 0.0293-3.16 0.114-7.61 0.114-7.61 1.28-8.78z" fill="#A6A9A8"/>
<path transform="translate(604,469)" d="m0 0h6v2h2v6h2v6h2v6h2c0.204 5.74 0.271 10.6-2 16h-2v2h-6v-2h-2c-0.66 1.32-1.32 2.64-2 4h2v3h-3v-2h-2c-2.71-4.77-4.57-8.34-4-14 1.65 0.33 3.3 0.66 5 1v-6h-2v-6h2v-2h-2v-10h2v-2h2v-2z" fill="#A8ABAB"/>
<path transform="translate(450,1081)" d="m0 0h5c1.13 9.43 0.961 18.5 0.25 28-0.111 1.61-0.111 1.61-0.224 3.25-0.733 8.79-2.17 14.7-9.03 20.7-0.763 0.701-1.53 1.4-2.31 2.12-5.86 4.09-10.7 5.32-17.8 4.39-1.88-0.52-1.88-0.52-3.88-2.52 3.05-0.981 4.95-0.981 8 0v-2h4c1.6-5.45 3-10.3 3-16h2c0.33-0.99 0.66-1.98 1-3 0.949-0.309 1.9-0.619 2.88-0.938 3.54-1.21 4.47-1.75 6.12-5.06 0.872-3.89 1.28-7.15 0-11 0.33-1.18 0.66-2.35 1-3.56 1.38-4.94 0.759-9.43 0-14.4z" fill="#A8AAA9"/>
<path transform="translate(1290,141)" d="m0 0v2h-2c0.66 3.3 1.32 6.6 2 10 2.31 0.66 4.62 1.32 7 2v2c0.66-0.99 1.32-1.98 2-3h2c-0.188 2.81-0.188 2.81-1 6-2.41 1.85-3.93 3-7 3v2h-2v4h-2c-1.32 4.13-1.69 8.7-0.434 12.9 0.556 2.7 0.096 4.68-0.504 7.36-0.195 0.892-0.389 1.78-0.59 2.7-0.156 0.675-0.312 1.35-0.473 2.05-0.66-0.33-1.32-0.66-2-1v-9h-2c-0.33 6.93-0.66 13.9-1 21h-1c-0.0606-0.999-0.121-2-0.184-3.03-0.0838-1.29-0.168-2.58-0.254-3.91-0.0812-1.29-0.162-2.58-0.246-3.9 0.0344-3.02 0.0344-3.02-1.32-4.16-1.14-16.1-1.62-33.8 7-48 2-1 2-1 4-1z" fill="#A8AAA9"/>
<path transform="translate(626,1183)" d="m0 0c2.64 0.66 5.28 1.32 8 2 0.865 2.71 1.27 4.22 1 7-4.32 8.19-11.5 13-20 16-6.84 1.34-11.9 1.41-18-2 2.57-1.62 3.68-2.04 6.75-1.62 1.11 0.309 1.11 0.309 2.25 0.625-0.33-1.65-0.66-3.3-1-5 0.99-0.66 1.98-1.32 3-2 1.01-2.18 1.01-2.18 1.69-4.62 0.251-0.817 0.503-1.63 0.762-2.48 0.182-0.626 0.364-1.25 0.551-1.9h3l1 2 1-2c2.29-0.852 2.29-0.852 5.06-1.62 0.919-0.26 1.84-0.521 2.79-0.789 0.71-0.193 1.42-0.387 2.15-0.586v-3z" fill="#A8AAA9"/>
<path transform="translate(587,563)" d="m0 0h3c0.33 0.66 0.66 1.32 1 2 0.33-0.66 0.66-1.32 1-2h8c0.338 2.06 0.67 4.12 1 6.19 0.186 1.15 0.371 2.3 0.562 3.48 0.372 2.84 0.523 5.48 0.438 8.33h2v25c-2.43-3.64-2.16-5.71-2-10h-2c-0.33 4.62-0.66 9.24-1 14h-1c-1.08-5.32-2.15-10.6-3-16h-2c-0.504-2.44-1-4.87-1.5-7.31-0.143-0.69-0.286-1.38-0.434-2.09-0.593-2.92-1.07-5.61-1.07-8.6h-3v-13z" fill="#A9ABA9"/>
<path transform="translate(628,611)" d="m0 0c0.61 4.73 0.888 7.55-1.64 11.7-2.04 2.54-4.12 4.95-6.36 7.32-1.04 1.11-1.04 1.11-2.09 2.25-2.27 2.09-3.88 2.42-6.91 2.75v2c-1.32 0.33-2.64 0.66-4 1-0.33-0.99-0.66-1.98-1-3h-2v-6h-2c-0.197-1.39-0.382-2.79-0.562-4.19-0.104-0.777-0.209-1.55-0.316-2.36-0.121-2.46-0.121-2.46 0.879-7.46h20v-2c3.75-2 3.75-2 6-2z" fill="#A8ABA9"/>
<path transform="translate(790,376)" d="m0 0c0.33 1.32 0.66 2.64 1 4h4c2.14 6.43 1.68 13.8-1 20h-2c0.0954 0.724 0.191 1.45 0.289 2.2 1.21 10.6 1.21 10.6-1.29 14.8-3.21 1.5-5.46 2-9 2-3-2-3-2-3.69-4.62-0.103-0.784-0.206-1.57-0.312-2.38h4c-0.66-1.65-1.32-3.3-2-5h2c-0.354-0.714-0.709-1.43-1.07-2.16-1.9-5.83 1.41-12.4 3.57-17.9 1.5-2.94 1.5-2.94 4.5-4.94 0.167-2.54 0.167-2.54 0-5 0.33-0.33 0.66-0.66 1-1z" fill="#A9ABA9"/>
<path transform="translate(1136,548)" d="m0 0c0.412 0.639 0.825 1.28 1.25 1.94 1.97 2.32 2.86 2.5 5.75 3.06 2.48 8.65 3.7 17 4.31 26 0.0986 1.2 0.197 2.4 0.299 3.64 0.0831 1.15 0.166 2.3 0.252 3.49 0.0752 1.03 0.15 2.07 0.228 3.13-0.0957 2.88-0.47 4.38-2.09 6.74-2.62 1.25-2.62 1.25-5 2-0.11-0.592-0.219-1.18-0.332-1.79-0.159-0.79-0.317-1.58-0.48-2.39-0.151-0.777-0.302-1.55-0.457-2.36-0.606-2.54-0.606-2.54-2.29-4.61-2.18-4.31-1.76-8.41-1.62-13.2 0.0135-0.931 0.0271-1.86 0.041-2.82 0.0352-2.29 0.0845-4.58 0.146-6.87h-2v-12h2v-4z" fill="#A8ABAB"/>
<path transform="translate(803,333)" d="m0 0v3c-3.38 0.125-3.38 0.125-7 0-0.66-0.66-1.32-1.32-2-2-0.99-0.33-1.98-0.66-3-1v-2c-1.79 0.282-3.58 0.576-5.38 0.875-1.5 0.244-1.5 0.244-3.02 0.492-2.74 0.429-2.74 0.429-4.6 2.63v3c-0.66 0.66-1.32 1.32-2 2 0.33 0.99 0.66 1.98 1 3-0.99 0.33-1.98 0.66-3 1-0.33 2.64-0.66 5.28-1 8h-6c-0.124 0.763-0.247 1.53-0.375 2.31-0.625 2.69-0.625 2.69-2.62 5.69-3.62 0.188-3.62 0.188-7 0v-2h2v-3c-2.33 0.959-2.33 0.959-4 4-1.19-3.56-0.486-4.86 1.05-8.17 3.53-6.78 7.83-12.5 14.3-16.5 0.915-0.581 1.83-1.16 2.77-1.76 9.93-5.4 20.1-5.07 29.9 0.449z" fill="#A6A9A8"/>
<path transform="translate(1182,1380)" d="m0 0c0.66 0.33 1.32 0.66 2 1-0.966 11.6-7.61 19.4-16.2 26.9-3.72 2.92-7.14 5.14-11.8 6.1-2.38-0.375-2.38-0.375-4-1-0.125-2.38-0.125-2.38 0-5l2-2h4v-2c0.99-0.33 1.98-0.66 3-1 1.01-1.66 2.01-3.33 3-5h2c0.33-1.65 0.66-3.3 1-5h2c0.0412-0.763 0.0825-1.53 0.125-2.31 0.875-2.69 0.875-2.69 3.69-4.25 1.05-0.474 2.1-0.949 3.19-1.44 1.37-1.29 2.71-2.62 4-4 0.66-0.33 1.32-0.66 2-1z" fill="#A8AAA9"/>
<path transform="translate(966,302)" d="m0 0c2.96 2.96 1.89 12.8 2 17-0.0539 8.68-0.0539 8.68-2.88 12.6-2.12 1.38-2.12 1.38-5.12 1.38-0.495 1.49-0.495 1.49-1 3-0.454-0.784-0.908-1.57-1.38-2.38-1.51-2.66-1.51-2.66-3.62-4.62-0.414-3.04-0.414-3.04-0.625-6.62-0.0748-1.19-0.15-2.38-0.227-3.6-0.049-0.915-0.098-1.83-0.148-2.77h2v-3h2c-0.0619-1.26-0.124-2.52-0.188-3.81 0.0207-3.89 0.0207-3.89 1.31-6.19 2.69-1.44 4.88-1.26 7.88-1z" fill="#A9ABA9"/>
<path transform="translate(607,680)" d="m0 0c3.96 5.13 4.13 8.49 4 15h2v13c0.99 0.33 1.98 0.66 3 1-0.495 2.48-0.495 2.48-1 5-1.98 0.495-1.98 0.495-4 1 0.0116 0.664 0.0232 1.33 0.0352 2.01 0.0896 8.77 0.0896 8.77-1.04 13-0.495-1.49-0.495-1.49-1-3h-2c-0.121-0.713-0.242-1.43-0.367-2.16-1.06-6.15-1.06-6.15-2.76-12.2-2.71-11.4-0.292-21.8 3.12-32.7z" fill="#A9ABA9"/>
<path transform="translate(610,511)" d="m0 0h6c0.0606 0.603 0.121 1.21 0.184 1.83 0.0838 0.799 0.168 1.6 0.254 2.42 0.122 1.18 0.122 1.18 0.246 2.39 0.265 2.33 0.265 2.33 0.848 4.42 0.718 2.97 0.527 5.9 0.469 8.94h-2v4h-8c-0.33 1.65-0.66 3.3-1 5h-4v-22h2v-2h3v-3h2v-2z" fill="#A8ABAC"/>
<path transform="translate(955,261)" d="m0 0v2h-2c-0.33 0.99-0.66 1.98-1 3-1.96 1.57-1.96 1.57-4.38 3.12-0.791 0.518-1.58 1.04-2.4 1.57-2.23 1.3-2.23 1.3-5.23 2.3 0.99 0.66 1.98 1.32 3 2 1.32-0.33 2.64-0.66 4-1v12c-1.65 0.33-3.3 0.66-5 1-1.07 1.97-2.07 3.97-3 6-1.49 0.495-1.49 0.495-3 1 0.33-1.65 0.66-3.3 1-5-1.16 1.1-1.16 1.1-2.44 3.06-0.516 0.639-1.03 1.28-1.56 1.94h-2v6h-1c-1.42-8.14-0.888-13.7 3-21 0.402-0.773 0.804-1.55 1.22-2.34 4.01-6.81 12.4-15.7 20.8-15.7z" fill="#A6A9A8"/>
<path transform="translate(1334,148)" d="m0 0v9h-2v6h-2v2h-6v-2h-2v-2h-8c-0.33 1.65-0.66 3.3-1 5-0.99-0.33-1.98-0.66-3-1 0.99-1.32 1.98-2.64 3-4-0.99-0.33-1.98-0.66-3-1 0.979-1.68 1.98-3.34 3-5 0.433-0.722 0.866-1.44 1.31-2.19 2.29-2.46 4.48-2.92 7.69-3.81 0.804-0.392 1.61-0.784 2.44-1.19 3.43-1.09 6.08-0.496 9.56 0.188z" fill="#A9ABA9"/>
<path transform="translate(419,943)" d="m0 0h2c0.33 1.32 0.66 2.64 1 4h2v-4h2c1.28 8.34 2.84 20.7-2 28-0.577-0.186-1.15-0.371-1.75-0.562-2.47-0.479-3.87-0.0948-6.25 0.562-1-1-1-1-1.13-3.08 0.0537-18.8 0.0537-18.8 2.13-22.9h2v-2z" fill="#A9ABA9"/>
<path transform="translate(1361,1446)" d="m0 0h6c-1.52 12.1-6.75 21.1-16 29.2-4.93 2.99-9.48 2.71-15 1.84 0.639-0.287 1.28-0.575 1.94-0.871 2.23-0.96 2.23-0.96 3.06-3.19 0.33-0.639 0.66-1.28 1-1.94 1.33-0.333 2.67-0.667 4-1 1.2-1.82 1.2-1.82 2-4 0.938-2.19 0.938-2.19 2-4 0.99-0.33 1.98-0.66 3-1l2-2c2.62-0.625 2.62-0.625 5-1-0.206-1.05-0.412-2.1-0.625-3.19-0.375-3.81-0.0913-5.48 1.62-8.81z" fill="#A8AAA9"/>
<path transform="translate(404,1099)" d="m0 0c1.65 0.99 3.3 1.98 5 3 0.66-0.66 1.32-1.32 2-2 4.43 2.95 5.5 7.01 7 12 0.282 2.46 0.216 4.52 0 7h-5v3h-2v-3h-3c-0.33 1.65-0.66 3.3-1 5h-2c-1-3-1.12-4.97-1.1-8.11 0.00322-0.983 0.00645-1.97 0.00977-2.98 0.00838-1.02 0.0168-2.05 0.0254-3.1 0.00451-1.04 0.00902-2.07 0.0137-3.14 0.0118-2.56 0.0282-5.12 0.0488-7.67z" fill="#A6A9A8"/>
<path transform="translate(973 285)" d="m0 0c1.45 0.0309 1.45 0.0309 2.94 0.0625 0.33 0.99 0.66 1.98 1 3h2v3c1.32 0.33 2.64 0.66 4 1 0.2 3.77 0.383 7.54 0.562 11.3 0.0561 1.05 0.112 2.11 0.17 3.19 0.32 6.93 0.0906 13.6-0.732 20.5h-1c-2.51-8.64-2.18-17.1-2-26h-2c-0.289-0.804-0.577-1.61-0.875-2.44-0.858-2.7-0.858-2.7-3.12-3.56v-2h-2v-4h-15c3.34-1.67 4.72-2.26 8.19-2.56 3.81-0.438 4.26-1.43 7.88-1.5z" fill="#A9ABA9"/>
<path transform="translate(444,776)" d="m0 0c0.66 0.33 1.32 0.66 2 1 0.0424 2.33 0.0409 4.67 0 7-0.33 0.33-0.66 0.66-1 1-0.121 4.1 0.1 8.21 0.25 12.3 0.0271 1.15 0.0541 2.31 0.082 3.5 0.04 1.11 0.0799 2.22 0.121 3.37 0.0325 1.02 0.0651 2.04 0.0986 3.09 0.504 3.07 1.5 4.37 3.45 6.73 0.293 2.58 0.293 2.58 0.188 5.25-0.0271 0.892-0.0541 1.78-0.082 2.7-0.0348 0.675-0.0696 1.35-0.105 2.05-0.66-0.66-1.32-1.32-2-2-0.66 0.66-1.32 1.32-2 2-0.98-5.69-1.12-11.2-1.06-16.9 0.00451-0.875 0.00902-1.75 0.0137-2.65 0.0117-2.14 0.0296-4.27 0.0488-6.41h-6l-1 2c-1.39-5.57-0.887-10.6 1-16 3.12-2.44 3.12-2.44 6-4v-4z" fill="#A9ABA9"/>
<path transform="translate(950,1287)" d="m0 0c2.1-0.399 2.1-0.399 4-1v3h-2c-0.124 1.09-0.247 2.19-0.375 3.31-0.653 5.27-1.64 10.5-2.62 15.7-1.71-1.63-2.93-2.87-4-5-0.33 1.65-0.66 3.3-1 5-2.74-2.4-3.91-4.28-4.37-7.9-0.173-8.39-0.173-8.39 1.74-10.9 2.79-2.07 5.36-3.85 8.63-2.21z" fill="#A8ABA9"/>
<path transform="translate(446,829)" d="m0 0c2.5 2.31 2.5 2.31 5 5v3h2v2h2v10h-2v3h-3c-0.33 1.65-0.66 3.3-1 5h-1c-0.33 1.65-0.66 3.3-1 5-1.52-1.25-1.52-1.25-3-3-0.094-1.87-0.094-1.87 0.277-4 0.797-5.35 1.06-10.7 1.29-16.1 0.0432-0.961 0.0864-1.92 0.131-2.91 0.105-2.34 0.207-4.68 0.307-7.03z" fill="#A8AAA8"/>
<path transform="translate(772,367)" d="m0 0c0.99 0.33 1.98 0.66 3 1-0.99 1.49-0.99 1.49-2 3h3v-2h2v8h-2c0.0116 0.904 0.0232 1.81 0.0352 2.74 0.00902 1.18 0.018 2.36 0.0273 3.57 0.0116 1.17 0.0232 2.34 0.0352 3.55-0.0977 3.14-0.0977 3.14-1.1 6.14h-3v-12h-2c-0.33-0.99-0.66-1.98-1-3-1.32 1.65-2.64 3.3-4 5-1.12-3.75-1.12-3.75 0-6l-2-1 9-9z" fill="#A9ABA9"/>
<path transform="translate(790,963)" d="m0 0h2c0.928 7.28 1.03 14.4 0.625 21.7-0.0431 0.802-0.0862 1.6-0.131 2.43-0.362 5.75-0.362 5.75-1.49 6.88-0.297 9.34 0.431 18.7 1 28-0.99 0.495-0.99 0.495-2 1v-2h-2c0.00524-1.04 0.0105-2.08 0.0159-3.15 0.0181-3.86 0.0296-7.72 0.0391-11.6 0.00502-1.67 0.0118-3.34 0.0205-5.01 0.0122-2.4 0.0178-4.81 0.0222-7.21 0.00774-1.12 0.00774-1.12 0.0156-2.26 3.69e-4 -3.42-0.107-6.51-1.11-9.79-0.477-5 0.787-9.04 2.34-13.7 0.795-2.36 0.795-2.36 0.656-5.27z" fill="#A8ABA9"/>
<path transform="translate(1319,1121)" d="m0 0c0.66 0.33 1.32 0.66 2 1v15h2v6c-0.66 0.33-1.32 0.66-2 1 0.33 0.33 0.66 0.66 1 1 0.0408 2 0.0425 4 0 6-0.99-0.33-1.98-0.66-3-1-0.33-0.99-0.66-1.98-1-3-0.33 2.97-0.66 5.94-1 9-2-2-2-2-2.5-5.56-0.165-1.13-0.33-2.27-0.5-3.44-0.66-0.33-1.32-0.66-2-1-0.167-4.92-0.248-8.5 2-13 0.33 1.32 0.66 2.64 1 4 0.99-0.33 1.98-0.66 3-1 1.1-3.29 1.1-5.74 1.06-9.19-0.0135-1.63-0.0135-1.63-0.0273-3.29-0.0116-0.831-0.0232-1.66-0.0352-2.52z" fill="#A8AAAB"/>
<path transform="translate(1136,548)" d="m0 0c0.412 0.639 0.825 1.28 1.25 1.94 1.76 2.48 1.76 2.48 5.75 3.06 0.66 2.97 1.32 5.94 2 9h-3v7c-1.21-2.33-2.17-4.5-3-7h-2v7h3v2h-3v6c0.99 0.33 1.98 0.66 3 1h-3v4c0.66 0.33 1.32 0.66 2 1-1.48 0.495-1.48 0.495-3 1v-20h-2v-12h2v-4z" fill="#A9ABA9"/>
<path transform="translate(787,762)" d="m0 0c0.33 0.99 0.66 1.98 1 3 0.619-0.206 1.24-0.413 1.88-0.625 1.05-0.186 1.05-0.186 2.12-0.375 2 2 2 2 2.2 5.26-0.0232 1.28-0.0464 2.55-0.0703 3.87-0.018 1.28-0.0361 2.56-0.0547 3.88-0.0232 0.987-0.0464 1.97-0.0703 2.99h-2c0.33 1.65 0.66 3.3 1 5-1.65-0.33-3.3-0.66-5-1v-6h-2c-1-5.96-1.07-10.3 1-16z" fill="#A9ABA9"/>
<path transform="translate(269,780)" d="m0 0h3c0.0251 5.94 0.043 11.9 0.0549 17.8 0.00497 2.01 0.0117 4.02 0.0205 6.03 0.0541 12.8-0.193 25.4-1.08 38.2h-2v-62z" fill="#A8AAA8"/>
<path transform="translate(407,799)" d="m0 0h2c0.33 1.98 0.66 3.96 1 6 0.66-0.33 1.32-0.66 2-1-0.33 1.65-0.66 3.3-1 5h2c0.33 5.28 0.66 10.6 1 16h-2c-0.33-2.64-0.66-5.28-1-8v20c-2.14-3.2-2.23-4.02-2.12-7.69 0.018-0.808 0.0361-1.62 0.0547-2.45 0.0348-0.922 0.0348-0.922 0.0703-1.86h-2c-1.34-8.53-1.98-17.5 0-26z" fill="#A8ABAB"/>
<path transform="translate(779,500)" d="m0 0h2v2h2v10h2v2h5c-0.33-0.598-0.66-1.2-1-1.81-1-2.19-1-2.19-1-5.19h2v2h5c0.33 0.99 0.66 1.98 1 3-0.33 0.66-0.66 1.32-1 2-0.144 0.804-0.289 1.61-0.438 2.44-0.562 2.56-0.562 2.56-2.56 5.56-3.12 0.188-3.12 0.188-6 0-0.33-1.65-0.66-3.3-1-5h-2c-1.81-3.98-2.46-7.67-3-12-0.32-1.67-0.647-3.34-1-5z" fill="#A9ABA9"/>
<path transform="translate(768,452)" d="m0 0c0.309 0.639 0.619 1.28 0.938 1.94 0.897 2 0.897 2 2.06 3.06 0.81 3.09 1.38 6.24 2 9.38 0.183 0.913 0.366 1.83 0.554 2.77 1.07 5.51 1.81 10.9 2.16 16.5 0.477 3.97 1.82 7.63 3.28 11.3-0.99 0.495-0.99 0.495-2 1-2.57-1.29-2.64-2.13-3.56-4.81-1.53-4.75-1.87-9.32-2.03-14.3-0.251-3-0.251-3-1.93-5.73-1.89-4.02-1.82-7.17-1.67-11.5 0.0135-0.736 0.0271-1.47 0.041-2.23 0.035-1.8 0.0888-3.6 0.146-5.39-0.66-0.33-1.32-0.66-2-1l2-1z" fill="#A9ABA9"/>
<path transform="translate(773,447)" d="m0 0c0.309 0.639 0.619 1.28 0.938 1.94 0.897 2 0.897 2 2.06 3.06 0.81 3.09 1.38 6.24 2 9.38 0.183 0.913 0.366 1.83 0.554 2.77 1.08 5.51 1.82 10.9 2.16 16.5 0.413 3.38 1.52 6.4 2.76 9.56 0.523 1.78 0.523 1.78-0.477 3.78-6.16-7.74-6.17-14.4-6-24h-2c-2.57-3.84-2.23-7.81-2.12-12.2 0.00902-0.745 0.018-1.49 0.0273-2.26 0.0235-1.83 0.0593-3.66 0.0977-5.49h-2v-2l2-1z" fill="#A9ABA9"/>
<path transform="translate(1151,1263)" d="m0 0c-0.14 2.81-0.287 5.63-0.438 8.44-0.059 1.2-0.059 1.2-0.119 2.43-0.33 6.02-0.33 6.02-1.44 7.13-2.33 0.0409-4.67 0.0424-7 0-0.66-3.3-1.32-6.6-2-10 3.46-0.495 3.46-0.495 7-1-2.39-1.11-2.39-1.11-5-2-0.99 0.495-0.99 0.495-2 1 0.33-1.32 0.66-2.64 1-4h4c4.25-2 4.25-2 6-2z" fill="#A8ABAA"/>
<path transform="translate(625,530)" d="m0 0c3.03 3.03 2.52 6.6 2.69 10.7 0.0398 0.872 0.0796 1.74 0.121 2.64 0.386 10.5 0.4 21.3-0.808 31.7-0.495 0.495-0.495 0.495-1 1-0.237 3.43-0.397 6.84-0.518 10.3-0.0915 1.91-0.28 3.82-0.482 5.73-0.99 0.495-0.99 0.495-2 1 0.0606-1.11 0.121-2.22 0.184-3.37 1.02-19.9 1.37-39.7 1.82-59.6z" fill="#A9ABA9"/>
<path transform="translate(815,497)" d="m0 0c0.385 1.32 0.698 2.66 1 4 0.289 1.2 0.577 2.39 0.875 3.62 0.718 5.52-2.14 9.77-4.88 14.4h-1c0.0206-1.13 0.0412-2.27 0.0625-3.44 0.353-3.38 0.353-3.38-1.06-4.56-1.47 4.6-2.87 9.01-3.5 13.8-0.532 3.39-1.55 5.4-3.5 8.19-1.35-2.7-0.74-4.14-0.125-7.06 0.183-0.898 0.366-1.8 0.555-2.72 0.57-2.21 0.57-2.21 1.57-3.21 0.231-1.35 0.412-2.7 0.562-4.06 0.144-1.3 0.289-2.6 0.438-3.94h2c0.433-1.42 0.433-1.42 0.875-2.88 1.12-3.12 1.12-3.12 3.12-5.12l-2-1v-2c0.639-0.289 1.28-0.577 1.94-0.875 2.21-0.953 2.21-0.953 3.06-3.12z" fill="#A9ABA9"/>
<path transform="translate(405 1e3)" d="m0 0 4 1v24c-0.99 0.33-1.98 0.66-3 1v-2h-2c-0.0289-3.62-0.0468-7.25-0.0625-10.9-0.00838-1.03-0.0168-2.07-0.0254-3.13-0.00322-0.986-0.00645-1.97-0.00977-2.99-0.00524-0.911-0.0105-1.82-0.0159-2.76 0.114-2.25 0.114-2.25 1.11-4.25z" fill="#A6A9A8"/>
<path transform="translate(765,1205)" d="m0 0h2v10c-2.64-0.33-5.28-0.66-8-1l-1 2h-2v10c-0.66 0.33-1.32 0.66-2 1-0.0538-2.96-0.0936-5.92-0.125-8.88-0.0168-0.842-0.0335-1.68-0.0508-2.55-0.00645-0.806-0.0129-1.61-0.0195-2.44-0.0157-1.12-0.0157-1.12-0.0317-2.25 0.227-1.88 0.227-1.88 2.23-3.88 2.69-0.27 5.29-0.0874 8 0 0.33-0.66 0.66-1.32 1-2z" fill="#A8AAA9"/>
<path transform="translate(1139,1085)" d="m0 0c2.47 0.495 2.47 0.495 5 1 0.99-0.33 1.98-0.66 3-1 1.26 2.52 1.1 4.31 1.06 7.12-0.00902 0.91-0.018 1.82-0.0273 2.76-0.0116 0.699-0.0232 1.4-0.0352 2.12h-2v3h-2v5c-0.33-0.99-0.66-1.98-1-3h-3c-0.33-5.61-0.66-11.2-1-17z" fill="#A8ABAC"/>
<path transform="translate(939,302)" d="m0 0v5c-1.32-0.33-2.64-0.66-4-1v6l2 1h-2v3h2c-0.66 1.98-1.32 3.96-2 6h-1c-0.33 1.65-0.66 3.3-1 5h-1c-0.33 1.65-0.66 3.3-1 5h-1c-1.15-6.34-1.1-12.6-1-19h3c0.0561-0.94 0.0561-0.94 0.113-1.9 0.0986-1.23 0.0986-1.23 0.199-2.48 0.058-0.812 0.116-1.62 0.176-2.46 0.879-3.72 2.96-4.16 6.51-4.16z" fill="#A8AAA8"/>
<path transform="translate(983,419)" d="m0 0h1c0.778 7.09 1.11 14.1 1.12 21.2 0.00451 0.744 0.00902 1.49 0.0137 2.25-0.0131 4.91-0.445 9.63-1.14 14.5h-2v6h-1c-0.413-31.5-0.413-31.5 2-44z" fill="#A9ABA9"/>
<path transform="translate(587,412)" d="m0 0h3v3h2v-3h3v8c-0.687 0.121-1.37 0.242-2.08 0.367-0.901 0.168-1.8 0.335-2.73 0.508-0.893 0.162-1.79 0.325-2.71 0.492-2.71 0.545-2.71 0.545-5.48 2.63-0.66-0.66-1.32-1.32-2-2 0.375-3.12 0.375-3.12 1-6 1.98-0.33 3.96-0.66 6-1v-3z" fill="#A6A9A8"/>
<path transform="translate(789,785)" d="m0 0c0.33 0.66 0.66 1.32 1 2h3c0.194 2.62 0.381 5.25 0.562 7.88 0.0561 0.746 0.112 1.49 0.17 2.26 0.381 5.64 0.381 5.64-0.732 7.86h-2v3h-2c-1.63-3.25-1.14-6.81-1.12-10.4-0.00387-0.768-0.00773-1.54-0.0117-2.33 0.00129-0.745 0.00258-1.49 0.00391-2.26 0.00113-0.679 0.00226-1.36 0.00342-2.06 0.137-2.1 0.562-3.97 1.13-5.98z" fill="#A8AAA8"/>
<path transform="translate(411 1e3)" d="m0 0h3c0.0579 3.79 0.0936 7.58 0.125 11.4 0.0168 1.08 0.0335 2.16 0.0508 3.27 0.00645 1.03 0.0129 2.06 0.0195 3.12 0.0105 0.953 0.0209 1.91 0.0317 2.89-0.227 2.34-0.227 2.34-2.23 4.34-2-2-2-2-2.24-4.23 0.00411-0.905 0.00822-1.81 0.0125-2.74 0.00193-0.982 0.00387-1.96 0.00586-2.97 0.0122-1.03 0.0245-2.06 0.0371-3.12 6.45e-4 -1.03 0.00129-2.06 0.00195-3.13 0.0454-7.67 0.0454-7.67 1.19-8.81z" fill="#A6A9A8"/>
<path transform="translate(1331,1478)" d="m0 0v2h2c0.33-0.66 0.66-1.32 1-2 0.99 0.66 1.98 1.32 3 2v-2c2.31-0.625 2.31-0.625 5-1 0.99 0.66 1.98 1.32 3 2-5.71 3.93-11 5.32-18 5-2.33-0.992-2.33-0.992-4-2 0.33-1.32 0.66-2.64 1-4 4.75-1.12 4.75-1.12 7 0z" fill="#A8AAA8"/>
<path transform="translate(1320,512)" d="m0 0h1v5h2c1.3 4.98 1.18 9.95 1.19 15.1 0.0122 0.898 0.0245 1.8 0.0371 2.72 0.00193 0.867 0.00387 1.73 0.00586 2.63 0.00411 0.785 0.00822 1.57 0.0125 2.38-0.27 2.46-1.02 4.08-2.24 6.21-1.91-11.4-2.22-22.4-2-34z" fill="#A8ABAC"/>
<path transform="translate(786,746)" d="m0 0c6.15 0.586 6.15 0.586 8 1 0.33 0.66 0.66 1.32 1 2-0.33 0.99-0.66 1.98-1 3-0.0392 2-0.0444 4 0 6h-4c-0.99 0.33-1.98 0.66-3 1-1.32-2.64-1.1-4.68-1.06-7.62 0.00902-1 0.018-2.01 0.0273-3.04 0.0116-0.771 0.0232-1.54 0.0352-2.34z" fill="#A8AAA8"/>
<path transform="translate(436,521)" d="m0 0h6v14h-6v-14z" fill="#A8ABAC"/>
<path transform="translate(418,697)" d="m0 0h1c0.0269 2.15 0.0463 4.29 0.0625 6.44 0.0116 1.19 0.0232 2.39 0.0352 3.62-0.0977 2.94-0.0977 2.94-1.1 3.94-0.0733 2.86-0.0924 5.7-0.0625 8.56 0.00451 0.806 0.00902 1.61 0.0137 2.44 0.0118 2 0.0298 4 0.0488 5.99-3.07-2.7-3.66-4.87-4.02-8.97 0.0347-6.72 1.09-13.4 2.02-20h2v-2z" fill="#A9ABA9"/>
<path transform="translate(819,403)" d="m0 0h1v29c-0.66 0.33-1.32 0.66-2 1-1.5-5.11-1.18-10.3-1.19-15.6-0.0122-1.05-0.0245-2.11-0.0371-3.19-0.00193-1.01-0.00387-2.02-0.00586-3.06-0.00411-0.922-0.00822-1.84-0.0125-2.8 0.243-2.39 0.243-2.39 2.24-5.39z" fill="#A8ABA9"/>
<path transform="translate(931,1263)" d="m0 0h1v25c-0.66 0.33-1.32 0.66-2 1-0.66-0.33-1.32-0.66-2-1-0.0538-2.63-0.0936-5.25-0.125-7.88-0.0168-0.746-0.0335-1.49-0.0508-2.26-0.0176-1.96 0.0726-3.91 0.176-5.86 0.66-0.66 1.32-1.32 2-2 0.4-2.32 0.74-4.66 1-7z" fill="#A7AAAA"/>
<path transform="translate(418,660)" d="m0 0h3c2.59 7.82 3.39 14.8 3 23h-2c-0.277-1.28-0.554-2.55-0.84-3.87-0.366-1.67-0.732-3.34-1.1-5.01-0.182-0.842-0.365-1.68-0.553-2.55-0.177-0.806-0.354-1.61-0.537-2.44-0.162-0.744-0.325-1.49-0.492-2.25-0.428-1.95-0.428-1.95-1.48-3.88 0.33-0.99 0.66-1.98 1-3z" fill="#A9ABA9"/>
<path transform="translate(1337,123)" d="m0 0c4.03 1.22 7.54 2.56 11 5v2c-0.99-0.165-1.98-0.33-3-0.5-4.08-0.564-7.88-0.775-12-0.5-1.94 1.35-1.94 1.35-3 3h-1v-8c1.13 0.0206 2.27 0.0413 3.44 0.0625 3.38 0.353 3.38 0.353 4.56-1.06z" fill="#A8AAA8"/>
<path transform="translate(413,660)" d="m0 0h3c0.133 0.626 0.266 1.25 0.402 1.9 0.177 0.817 0.353 1.63 0.535 2.48 0.261 1.22 0.261 1.22 0.527 2.46 0.458 2.19 0.458 2.19 1.54 4.16 0.0707 2.04 0.0842 4.08 0.0625 6.12-0.00902 1.1-0.018 2.19-0.0273 3.32-0.0116 0.843-0.0232 1.69-0.0352 2.55h-2c-0.673-2.89-1.34-5.79-2-8.69-0.191-0.817-0.382-1.63-0.578-2.47-0.909-4.01-1.69-7.7-1.42-11.8z" fill="#A9ABA9"/>
<path transform="translate(787,717)" d="m0 0 4 1v14c-0.33-1.32-0.66-2.64-1-4h-2v15h-2c-0.129-8.73 0.204-17.3 1-26z" fill="#A9ABA9"/>
<path transform="translate(581,666)" d="m0 0h1v53h-1c-0.0251-1.08-0.0501-2.16-0.0759-3.27-0.094-4-0.194-8-0.296-12-0.0434-1.73-0.085-3.46-0.125-5.2-0.0577-2.49-0.121-4.97-0.186-7.46-0.0167-0.777-0.0334-1.55-0.0506-2.35-0.0305-3.99-0.0305-3.99-1.27-7.72-0.134-2.67-0.0432-5.32 0-8h1c0.33-2.31 0.66-4.62 1-7z" fill="#A9ABA9"/>
<path transform="translate(608,541)" d="m0 0h6v10h-6v-10z" fill="#A8ABAC"/>
<path transform="translate(606,459)" d="m0 0h6v8h-8v-6h2v-2z" fill="#A8ABAC"/>
<path transform="translate(579,559)" d="m0 0c2.34 0.937 3.73 1.58 5.12 3.72 1.08 2.81 1.07 5.03 1 8.03-0.018 0.985-0.0361 1.97-0.0547 2.98-0.0348 1.12-0.0348 1.12-0.0703 2.27h-3c-0.195-2.02-0.391-4.04-0.586-6.05-0.278-2.17-0.278-2.17-2.41-3.95-0.125-3.62-0.125-3.62 0-7z" fill="#A8AAA8"/>
<path transform="translate(1158,211)" d="m0 0c0.66 0.33 1.32 0.66 2 1v2c1.32 0.33 2.64 0.66 4 1-0.33 0.66-0.66 1.32-1 2-2.06-0.142-4.13-0.289-6.19-0.438-1.15-0.0812-2.3-0.162-3.48-0.246-2.85-0.27-5.54-0.692-8.33-1.32 0.897-0.433 0.897-0.433 1.81-0.875 6.64-3.42 6.64-3.42 11.2-3.12z" fill="#A9ABA9"/>
<path transform="translate(814,346)" d="m0 0c3.47 2.68 4.09 5.82 5 10 0.074 2.33 0.0952 4.67 0 7h-1v-6h-4c-0.33 0.66-0.66 1.32-1 2v-2c-0.66-0.33-1.32-0.66-2-1 0.99-1.65 1.98-3.3 3-5-0.66-0.33-1.32-0.66-2-1 0.66-1.32 1.32-2.64 2-4z" fill="#A9ABA9"/>
<path transform="translate(1283,151)" d="m0 0c0.66 0.33 1.32 0.66 2 1v5c2.07 1.22 2.07 1.22 5 1v5h-8c0.33-3.96 0.66-7.92 1-12z" fill="#A8ABAB"/>
<path transform="translate(270,611)" d="m0 0h1v26h-1v-8c-0.99-0.33-1.98-0.66-3-1v-6h3v-11z" fill="#A6A9A8"/>
<path transform="translate(932,344)" d="m0 0c0.33 0.66 0.66 1.32 1 2h2c-0.227 0.516-0.454 1.03-0.688 1.56-0.565 2.63-0.565 2.63 1.19 5.5 2.35 4.87 1.28 9.76 0.5 14.9h-1c-0.66-3.96-1.32-7.92-2-12h-1v-12z" fill="#A9ABA9"/>
<path transform="translate(582,630)" d="m0 0v16c-0.99-0.33-1.98-0.66-3-1v-14c2-1 2-1 3-1z" fill="#A8AAA8"/>
<path transform="translate(1152,405)" d="m0 0h6c0.143 7.43 0.143 7.43-1 11h-2v-4c-0.99-0.33-1.98-0.66-3-1v-6z" fill="#A8ABAC"/>
<path transform="translate(405,1058)" d="m0 0h1v7c0.66 0.33 1.32 0.66 2 1-0.66 1.32-1.32 2.64-2 4 0.66 0.33 1.32 0.66 2 1-0.33 0.33-0.66 0.66-1 1-0.234 2.02-0.413 4.04-0.562 6.06-0.0838 1.1-0.168 2.21-0.254 3.35-0.0606 0.855-0.121 1.71-0.184 2.59h-1c-0.197-3.58-0.381-7.17-0.562-10.8-0.0561-1.02-0.112-2.03-0.17-3.08-0.0483-0.98-0.0967-1.96-0.146-2.97-0.0471-0.901-0.0943-1.8-0.143-2.73 0.0206-2.35 0.343-4.24 1.02-6.47z" fill="#A6A9A8"/>
<path transform="translate(813,409)" d="m0 0 2 1v19c-3-5.99-3.33-12.3-3-19 0.33-0.33 0.66-0.66 1-1z" fill="#A9ABA9"/>
<path transform="translate(603,546)" d="m0 0c0.33 0.66 0.66 1.32 1 2h2c0.33 0.99 0.66 1.98 1 3 0.66 0.33 1.32 0.66 2 1v4h-6v-10z" fill="#A8ABAC"/>
<path transform="translate(582 1e3)" d="m0 0v14c-0.99-0.33-1.98-0.66-3-1v-12c2-1 2-1 3-1z" fill="#A8AAA8"/>
<path transform="translate(428,494)" d="m0 0c-4.8 3.2-9.33 4-15 4 0.33-1.32 0.66-2.64 1-4 4.97-0.913 9.03-0.913 14 0z" fill="#A9ABA9"/>
<path transform="translate(960,258)" d="m0 0h12v2c-5.32 0.793-10.6 1.43-16 2 0.33-0.66 0.66-1.32 1-2h3v-2z" fill="#A6A9A8"/>
<path transform="translate(1148,281)" d="m0 0h6v6h-6v-6z" fill="#A8ABAC"/>
<path transform="translate(792,717)" d="m0 0c1.32 0.33 2.64 0.66 4 1-0.33 3.3-0.66 6.6-1 10h-3v-11z" fill="#A9ABA9"/>
<path transform="translate(789,1245)" d="m0 0c2.12 0.375 2.12 0.375 4 1-0.33 1.98-0.66 3.96-1 6-1.65-0.33-3.3-0.66-5-1 0-4 0-4 2-6z" fill="#A9ABA9"/>
<path transform="translate(628 1e3)" d="m0 0h1c0.196 1.89 0.382 3.79 0.562 5.69 0.104 1.06 0.209 2.11 0.316 3.2 0.114 2.93-0.17 5.28-0.879 8.11-0.66-0.33-1.32-0.66-2-1-0.0269-2.48-0.0468-4.96-0.0625-7.44-0.0126-1.06-0.0126-1.06-0.0254-2.14-0.00865-1.81 0.0357-3.61 0.0879-5.42l1-1z" fill="#A9ABA9"/>
<path transform="translate(1151,1263)" d="m0 0v2h-2c-0.33 1.65-0.66 3.3-1 5-0.949-0.351-1.9-0.701-2.88-1.06-3-1.29-3-1.29-5.12 0.0625 0.33-1.32 0.66-2.64 1-4h4c4.25-2 4.25-2 6-2z" fill="#A8ABAB"/>
<path transform="translate(607,519)" d="m0 0h1v15h-2v-10c-0.66-0.33-1.32-0.66-2-1h2c0.33-1.32 0.66-2.64 1-4z" fill="#A9ABA9"/>
<path transform="translate(430,498)" d="m0 0h-2v2c-4.95 1.49-4.95 1.49-10 3v-3c1.43-0.532 2.87-1.05 4.31-1.56 1.2-0.435 1.2-0.435 2.43-0.879 2.26-0.559 2.26-0.559 5.26 0.441z" fill="#A9ABA9"/>
<path transform="translate(1298,218)" d="m0 0c3.07 5.32 3.27 10.1 2 16h-2c-0.197-1.73-0.382-3.46-0.562-5.19-0.157-1.44-0.157-1.44-0.316-2.92-0.119-2.84 0.201-5.15 0.879-7.89z" fill="#A9ABA9"/>
<path transform="translate(582,654)" d="m0 0v11c-0.99-0.33-1.98-0.66-3-1v-9c2-1 2-1 3-1z" fill="#A8AAA8"/>
<path transform="translate(1363,300)" d="m0 0c0.66 0.33 1.32 0.66 2 1v12c-0.99 0.495-0.99 0.495-2 1-0.194-2.15-0.38-4.29-0.562-6.44-0.157-1.79-0.157-1.79-0.316-3.62-0.04-0.971-0.0799-1.94-0.121-2.94 0.33-0.33 0.66-0.66 1-1z" fill="#A8ABAC"/>
<path transform="translate(949,271)" d="m0 0c-1.29 1.38-2.63 2.71-4 4h-2c-0.33 0.66-0.66 1.32-1 2v-3c-0.99-0.33-1.98-0.66-3-1 3.72-2.66 5.58-3.39 10-2z" fill="#A9ABA9"/>
<path transform="translate(447,785)" d="m0 0h2v14h-1c-0.144-0.742-0.289-1.49-0.438-2.25-0.493-2.65-0.493-2.65-1.19-4.75-0.477-2.55 0.0024-4.51 0.625-7z" fill="#A9ABA9"/>
<path transform="translate(1337,296)" d="m0 0c0.826 2.89 1 4.89 1 8 0.66 0.33 1.32 0.66 2 1-0.99 0.495-0.99 0.495-2 1-2.12-0.938-2.12-0.938-4-2v-5h2c0.33-0.99 0.66-1.98 1-3z" fill="#A9ABA9"/>
<path transform="translate(1145,210)" d="m0 0c-2.65 2.17-4.64 3.35-8 4-0.99 0.33-1.98 0.66-3 1 0.964-2.41 1.69-3.77 3.81-5.31 2.73-0.858 4.46-0.444 7.19 0.312z" fill="#A8AAA8"/>
</svg>
